<?xml version="1.0" standalone="no"?>
<!DOCTYPE svg PUBLIC "-//W3C//DTD SVG 1.1//EN" "http://www.w3.org/Graphics/SVG/1.1/DTD/svg11.dtd">
<svg xmlns="http://www.w3.org/2000/svg">
<metadata>GPL / CC BY 3.0 http://creativecommons.org/licenses/by/3.0/</metadata>
<defs>
<font id="arkmime" horiz-adv-x="1000" >
<font-face font-family="arkmime" font-weight="400" font-stretch="normal" units-per-em="1000" ascent="850" descent="-150" />
<missing-glyph horiz-adv-x="1000" />
<glyph glyph-name="css" unicode="&#xe800;" d="m883 654c6-8 13-17 20-28c8-10 13-21 18-34c5-12 8-25 12-37c3-12 4-24 3-34l2-594c-2-10-4-20-7-30c-4-10-9-18-17-26c-8-7-16-12-25-16c-9-4-20-6-32-6h-716c-12 0-22 2-32 6c-9 4-17 9-25 16c-8 8-13 16-17 26c-3 10-5 20-6 30l2 844c-2 10 0 20 4 30c5 10 11 18 17 26c7 7 15 12 25 16c11 4 21 6 30 6h470c10 0 21-1 34-4c13-2 25-6 37-12c11-5 23-11 34-17c11-7 20-14 26-22l143-140z m-8-727l-2 594c1 1 2 3 1 4c-1 1-1 2 0 4c1 1 0 2-1 4c-1 1-1 2 0 4h-250l2 248c-3 0-4 0-5 1c-1 0-2 1-4 1s-3 0-4 0c0 0-2 0-5 0h-466c-4 0-7-1-8-1c-1-1-3-2-5-3c-2-2-3-3-3-5s-1-4-2-7l2-844c-1-3-1-5 0-7c1-2 2-3 3-5c1-1 2-2 5-3c2 0 4-1 6-1h720c2 0 4 1 6 1c3 1 5 2 5 3c1 2 2 3 3 5c1 2 1 4 0 7h2z m-502 324c1-3 1-7-2-10c-2-4-5-7-7-9c-2-3-5-5-9-6c-5-1-9-2-11-2c2 0 6-1 11-2c4-1 7-3 9-6c2-2 5-5 7-9c3-3 3-6 2-10l2-112c-1-4-1-7 0-11c1-4 3-8 4-11c1-3 3-6 6-9c2-2 4-6 6-10c5-2 9-5 11-6c3-2 7-4 11-5c5-2 9-3 12-3c3-1 7-1 13-1l-2-57c-16 0-32 3-47 10c-16 6-29 14-40 24c-11 10-20 22-27 35c-6 14-9 29-9 44v82c0 4-1 8-3 12s-5 7-7 9c-3 2-6 4-10 6s-8 3-12 3h-31v54h31c4 0 8 1 12 3s7 4 10 6c2 2 5 5 7 9s3 8 3 12v82c0 15 3 30 9 44c7 13 16 25 28 35s25 18 40 24c15 7 31 10 48 10v-57c-4 0-8 0-12-1c-4 0-8-1-12-3c-4-1-7-2-11-4c-3-2-6-5-10-7c-3-4-5-7-7-10c-2-3-4-6-6-9c-2-3-3-7-4-11c-1-3-1-7-1-11v-112h-2z m250-54c1 4 3 7 4 10c1 4 4 7 7 9c3 3 6 5 10 6c3 1 7 2 12 2c-5 0-9 1-12 2c-4 1-7 3-10 6c-3 2-6 5-7 9c-1 3-3 7-4 10l2 112c-1 4-2 8-2 11s-1 8-4 11c-2 3-4 6-6 9c-1 3-4 6-7 10c-3 2-6 5-10 7s-8 3-11 5c-3 1-7 2-12 2c-4 1-8 1-10 1l-2 57c18 0 34-3 49-10c15-6 29-14 40-24s21-22 27-35s9-29 11-44l-2-82c1-4 2-8 4-12c1-4 3-7 6-9c4-2 7-4 10-6c3-2 8-3 13-3h29l2-54h-33c-3 0-6-1-11-3c-4-2-8-4-10-6s-4-5-6-9c-3-4-4-8-2-12l-2-82c1-15-2-30-9-44c-7-13-16-25-27-35c-10-10-23-18-40-24c-16-7-32-10-47-10l-2 57c5 0 9 0 12 1c4 0 7 1 12 3c5 1 8 3 11 5c2 2 6 4 11 6c2 4 4 8 6 10c3 3 5 6 6 9c1 3 3 7 4 11c1 4 1 8 0 11l2 112h-2z m215 414l-141 138c0 2 0 3-2 3c-1 1-2 2-3 2c0 1-1 2-3 2c-1 1-1 2-1 3l-2-160h162c-3 1-4 2-4 3c0 1-1 2-2 3c-1 1-2 2-2 3c0 1-1 1-4 3h2z" horiz-adv-x="1000" />
<glyph glyph-name="cmd" unicode="&#xe816;" d="m940 519c-2 12-3 23-5 35s-6 24-12 37c-6 13-12 25-18 34s-13 20-22 29l-139 138c-9 10-18 17-28 23s-21 12-34 17c-13 6-26 10-37 12s-24 4-36 5l-466-2c-12 1-23 0-32-5c-9-4-17-10-25-16c-8-7-13-15-17-26c-3-10-5-20-6-29l2-846c-2-9 0-19 4-29c5-11 10-19 17-26c7-6 15-12 25-16c11-5 21-6 30-5l720-2c9 1 19 4 30 7c10 3 19 9 25 16c7 8 12 17 17 26c4 9 6 19 5 31l2 592z m-249 236l6-4l4-3l137-137l2-2c2-3 4-4 4-5c0-1 1-2 4-5l-158-2l-2 162l3-4z m186-830c-1-1-2-3-2-6c0-2-1-4-3-5c-2 0-3-1-5-3c-1-1-4-1-8 0l-716-1c-4 1-7 1-8 1c-1 0-3 1-5 3s-3 4-3 5c0 2-1 4-2 8l2 842c-1 4-1 6 0 8c1 1 2 3 3 5c1 2 2 3 5 3c2 0 4 0 6 2l470-2c0 1 1 1 3 1c2-1 4-1 4 0c1 0 2 0 4-1c2-2 3-2 3 0l2-250l246 2c1-3 2-5 2-5c0-1 0-2 1-4c1-2 1-3 0-4c-1-1 0-2 1-5l-2-592l2-2z m-283 831h-438v-250v-78v-484h688v562h-250v250z m-156-547h-63v-62h-62v-63h-63v63h63v62h62v63h-62v62h-63v63h63v-63h62v-62h63v-63z m250-62v-63h-188v63h188z" horiz-adv-x="1000" />
<glyph glyph-name="fla" unicode="&#xe802;" d="m883 654c9-9 16-19 22-29s12-21 18-34c6-13 10-25 12-37s3-23 5-35l-2-592c1-12-1-22-5-31c-5-9-10-18-17-26c-6-7-15-13-25-16c-11-3-21-6-30-7l-720 2c-9-1-19 0-30 5c-10 4-19 10-25 16c-7 7-12 15-17 26c-4 10-6 20-5 29l-1 846c1 9 3 19 6 29c4 11 9 19 17 26c8 6 16 12 25 16c9 5 20 6 32 5l466 2c12-1 24-3 36-5s24-6 37-12c13-5 24-11 34-17s19-13 28-23l139-138z m-8-727l2 592c-1 3-2 4-1 5c1 1 1 2 0 4c-1 2-1 3-1 4c0 0-1 2-2 5l-246-2l-2 250c0-2-1-2-3 0c-2 1-3 1-4 1c0-1-2-1-4 0c-2 0-3 0-3-1l-470 2c-2-2-4-2-6-2c-3 0-4-1-5-3c-1-2-2-4-3-5c-1-2-1-4 0-8l-2-842c1-4 2-6 2-8c0-1 1-3 3-5s4-3 5-3c1 0 4 0 8-2l716 2c4-1 7-1 8 0c2 2 3 3 5 3c2 1 3 3 3 5c0 3 1 5 2 6l-2 2z m-37 684l-137 137l-4 3l-6 4l-3 4l2-162l158 2c-3 3-4 4-4 5c0 1-2 2-4 5l-2 2z m-424-263h206v-63h-129v-77h121v-62h-121v-135h-77v337z m254 18h76v-355h-76v355z" horiz-adv-x="1000" />
<glyph glyph-name="html" unicode="&#xe803;" d="m883 654c9-9 16-19 22-29s12-21 18-34c6-13 10-25 12-37s3-23 5-35l-2-592c1-12-1-22-5-31c-5-9-10-18-17-26c-6-7-15-13-25-16c-11-3-21-6-30-7l-720 2c-9-1-19 0-30 5c-10 4-19 10-25 16c-7 7-12 15-17 26c-4 10-6 20-5 29l-1 846c1 9 3 19 6 29c4 11 9 19 17 26c8 6 16 12 25 16c9 5 20 6 32 5l466 2c12-1 24-3 36-5s24-6 37-12c13-5 24-11 34-17s19-13 28-23l139-138z m-8-727l2 592c-1 3-2 4-1 5c1 1 1 2 0 4c-1 2-1 3-1 4c0 0-1 2-2 5l-246-2l-2 250c0-2-1-2-3 0c-2 1-3 1-4 1c0-1-2-1-4 0c-2 0-3 0-3-1l-470 2c-2-2-4-2-6-2c-3 0-4-1-5-3c-1-2-2-4-3-5c-1-2-1-4 0-8l-2-842c1-4 2-6 2-8c0-1 1-3 3-5s4-3 5-3c1 0 4 0 8-2l716 2c4-1 7-1 8 0c2 2 3 3 5 3c2 1 3 3 3 5c0 3 1 5 2 6l-2 2z m-37 684l-137 137l-4 3l-6 4l-3 4l2-162l158 2c-3 3-4 4-4 5c0 1-2 2-4 5l-2 2z m-89-301c0 1 0-12 1-39c0-27-5-58-15-92c-10-34-28-68-54-101c-26-33-64-56-117-67c-3-2-7-3-11-4c-4 0-8-1-11-2c-4-1-8-1-12-1s-8 0-11-1c0 1-1 1-1 0c0 0-1 0-1 0c0 0-1 0-1-1c0 0-1 0-1 1c-4-1-7-1-10-1c-3 1-7 1-10 0c-3 0-6 0-10 0c-3 1-6 1-9 0c-19 2-37 6-55 12c-17 5-33 12-49 23c-16 10-30 22-44 35s-26 30-37 50c-5 9-10 18-14 27c-4 9-8 18-10 26c-3 8-5 16-6 24c-2 8-3 15-3 21c-1-3-1-6-2-9c0-3 0-6-1-7c0-2 0-4-1-5c0-2 0-2 0-2c-1 11-1 21-1 30c1 9 1 18 2 25c1 7 2 14 3 20c1 6 3 11 5 15c-3-3-5-7-6-10c-1-4-3-7-4-9c-1-2-1-4-2-6c-1-1-1-2-1-1c1 7 3 14 4 22c2 7 4 13 5 19c2 5 4 10 6 15s4 9 6 12c0 1 0 2 0 3c0 1 1 3 2 5c2 3 3 5 4 7c2 2 3 4 5 8v1c0 1 0 1 0 0c0 17 0 30 3 41c2 10 5 19 9 26c3 7 6 12 9 15c3 2 5 4 5 4c0 0 0 0 0 0c0 0 0 0 0 0c0 0 0 0 0 0c0 0 0 0 0-1c0 1 0 1 0 1c0 0 0 0 0 0c0 0 0 0 0 0c0 0 0 0 0 0c0-5 1-10 3-14c2-4 4-8 6-12c2-5 5-8 8-11s5-6 7-8c1 0 3 0 4 0c1-1 1-1 2-1c1 0 2 0 3 0c1 0 1 0 2 1c4 0 8 0 12 1c3 0 8 0 12 0c4 0 8-1 13-1c5 0 9-1 14-2c5 7 12 12 20 16s15 7 23 9c7 2 13 3 17 3c5 0 7 0 6 0c0-1 0-1 0-1c0 1 0 1 0 0c0 0 0 0 0 0c0 1 0 1 0 0c-5-2-9-5-13-8c-4-4-7-8-9-12c-3-3-5-8-7-13s-4-9-5-14c0-3 2-5 3-7c2-2 4-4 6-7c2-3 5-5 8-6c4-2 7-3 11-3c3 0 5 0 7 0c2 0 4 0 5 0c2 0 4 0 5 0c2 0 3 0 5 1v-1c0 0 0 0 0 0c0 0 0 0 0 0c0 0 0 0 0 0c0 0 0 0 0 1c3-1 6-1 8-1c2 0 4 0 5 0c2-1 3-1 3-1c1 0 1-1 1-2c0 0 0 1 0 0c0 0 0 0 0 0c0 1 0 1 0 0c0 0 0 0 0 1c0-1 0-1 0-1c0 1 0 1 0 0c0 0 0 0 0 0c0 1 0 0 0 0c0 0 0 1 0 0c0 0 0 0 0 0c0 1 0 1 0 0c0 0 0 0 0 1c0-1 0-1 0-1c0 1 0 1 0 0c0 0 0 0 0 0c0 1 0 0 0 0c0 0 0 1 0 0c0 0 0 0 0 0c0 1 0 1 0 0c0 0 0 0 0 1v-1c0-1 0-1 0-1c0 1 0 0 0 0c0 0 0 1 0 0c0 0 0 0 0 0c0 1 0 0 0 0c0-1 0-1 0 0v-1c0-2 0-2 0-2c0 1 0 0 0-1c0 0 0 1 0 0c0 0 0 0 0 0c0 1 0 1 0 0c0 0 0 0 0 1c0-1 0-1 0-1c0 1 0 1 0 0c0 0 0 0 0 0c0 1 0 0 0-1c0 0 0 1 0 0c0 0 0 0 0 0c0 1 0 1 0 0c0 0 0 0 0 1c0-1 0-1 0-1c0 1 0 0 0 0v-1c0 0 0 1 0 0c0 0 0 0 0 0c0 1 0 1 0 0c0 0 0 0 0 1c0-1 0-1 0-1c0 1 0 1 0 0c0 0 0 0 0 0c0 1 0 0 0 0c0-2 0-4-1-6c0-1-1-2-2-3c0-1-1-2-2-3c0-1-1-2-2-2c0-1 0-1 0 0c0 0 0 0 0 0c0-1 0-1 0 0c0 0 0 0 0-1c0 1 0 1 0 1c0-1 0-1 0 0c0 0-1 0-1 0c0-1 0-1 0 0c0-1 0-2 0-1c0 0 0 0 0 0c0-1 0-1 0 0c0 0-1 0-1-1c-1-1-2-2-3-2c0 0-1 0-2-1c-2-1-3-2-3-2c-2-2-4-3-5-4c-2 0-3-1-5-3c-1-1-3-2-5-2c-1-1-3-2-4-4c-2-1-4-2-5-3c-2-2-3-3-4-3c-1-1-2-2-4-4c0-1 0-1 0-1c0 1 0 1 0 0v-1c0 1 0 1 0 0c0 0 0 0 0 0c0 1 0 1 0 0c0 0 0 0 0 1c0-1 0-1 0-1c0 1 0 1 0 0c0 0 0 0 0 0c0 1 0 1-1 0c0 1 0 1 0 0c0 0 0 0 0 0c0 1 0 1 0 0c0 0 0 0 0 1c0-1 0-1 0-1c0 1 0 1 0 0c0 0 0 0 0 0c0 1 0 1 0 0c1-1 1-2 2-3c0-1 0-2 1-3c0-1 0-3 1-4c0-2 0-3 0-4c0-2 0-3 1-4c0 0 0-1 0-3c0-1 0-2 0-2c0 0 0-1 0-3c0-2 0-4 0-4c0 0 0-1 0-3c-2 0-4 0-6 2c-2 1-3 2-5 2c-2 0-3 0-5 1s-4 2-6 2c-2 0-3-1-4-1c-1-1-3-2-5-3c-1-1-3-2-4-3c-1-2-2-3-3-5c0-1 0-2 0-2c-1-1-1-1-1-2c-1-1-1-1-1-2c0-1 0-1 0-2c0-2 0-4 1-7c0-2 1-5 3-8s5-6 8-9c4-4 9-7 15-10c7-5 15-7 21-8c7-1 13 0 18 1c6 1 11 3 16 5c5 3 9 4 13 6c6 1 11 1 17 1c5 0 9-1 13-3c4-1 8-3 11-6c3-2 5-4 7-6c2-2 3-4 3-6c1-2 0-4-1-5c-1-2-2-3-4-4c-2 0-4 0-6 0c-3 0-5 0-7-1c-3 0-5-1-8-3c-3-2-6-4-10-6c-3-3-8-6-12-8c-4-3-9-6-15-8c-6-2-13-4-19-5c-7-1-13-2-20-2c-6 0-12 1-16 2c9-6 20-14 35-22c14-8 30-13 47-15c17-3 34 0 52 8c19 8 36 26 54 53c3 5 5 7 4 4c0-3-1-7-2-13c-1-6-3-12-4-17c-1-6-2-9-1-9c6 5 11 11 15 19c4 9 7 18 9 28c2 11 2 21 2 32c0 12 0 22-1 31c3-2 7-4 9-7c2-3 4-5 5-7c1-3 2-4 3-6c0-1 0-1 1-1c2 6 4 13 4 22c1 8 2 17 2 26c1 9 1 18 0 27c-1 9-2 16-5 23c3-1 6-3 9-6c3-3 6-5 8-8s4-7 7-11c-5 23-14 42-26 56c-12 14-25 24-38 31c-13 8-24 12-34 15c-10 2-14 3-14 3c6 2 12 3 18 4c6 1 12 2 16 2c5 1 10 1 16 1c-3 4-8 7-15 10c-8 3-15 6-24 8c-8 2-18 5-31 7h-1h1h1c0 0 3 1 6 1c4 1 10 1 18 0c7 0 16-2 26-3c11-2 23-5 36-10c12-3 22-9 31-17c8-7 15-14 21-22c5-7 10-16 15-27c0 3 0 7 0 10c-1 4-2 8-3 13c-1 5-3 11-6 18c2-1 4-3 6-5c2-3 4-6 7-12c3-5 6-12 10-22c2-7 5-15 7-26c2-11 4-21 6-31c1-10 3-23 5-38l6 37v-1z" horiz-adv-x="1000" />
<glyph glyph-name="indd" unicode="&#xe804;" d="m883 654c9-9 16-19 22-29s12-21 18-34c6-13 10-25 12-37s3-23 5-35l-2-592c1-12-1-22-5-31c-5-9-10-18-17-26c-6-7-15-13-25-16c-11-3-21-6-30-7l-720 2c-9-1-19 0-30 5c-10 4-19 10-25 16c-7 7-12 15-17 26c-4 10-6 20-5 29l-1 846c1 9 3 19 6 29c4 11 9 19 17 26c8 6 16 12 25 16c9 5 20 6 32 5l466 2c12-1 24-3 36-5s24-6 37-12c13-5 24-11 34-17s19-13 28-23l139-138z m-8-727l2 592c-1 3-2 4-1 5c1 1 1 2 0 4c-1 2-1 3-1 4c0 0-1 2-2 5l-246-2l-2 250c0-2-1-2-3 0c-2 1-3 1-4 1c0-1-2-1-4 0c-2 0-3 0-3-1l-470 2c-2-2-4-2-6-2c-3 0-4-1-5-3c-1-2-2-4-3-5c-1-2-1-4 0-8l-2-842c1-4 2-6 2-8c0-1 1-3 3-5s4-3 5-3c1 0 4 0 8-2l716 2c4-1 7-1 8 0c2 2 3 3 5 3c2 1 3 3 3 5c0 3 1 5 2 6l-2 2z m-37 684l-137 137l-4 3l-6 4l-3 4l2-162l158 2c-3 3-4 4-4 5c0 1-2 2-4 5l-2 2z m-385-263v-337h-77v337h77z m299 18v-282c0-28 1-57 2-73h-68l-3 36h-1c-16-28-45-42-77-42c-58 0-104 50-104 126c-1 82 51 130 109 130c30 0 54-11 65-28h1v133h76z m-76-214c0 4-1 9-1 13c-5 21-21 38-45 38c-34 0-52-31-52-70c0-41 20-67 52-67c22 0 39 15 44 36c1 6 2 11 2 18v32z" horiz-adv-x="1000" />
<glyph glyph-name="js" unicode="&#xe805;" d="m883 654c8-8 15-17 21-28c7-10 13-21 18-34c5-12 9-25 12-37c2-12 4-24 4-34v-594c0-10-2-20-6-30s-10-18-17-26c-7-7-16-12-25-16s-20-6-31-6h-718c-11 0-21 2-31 6s-18 9-25 16c-7 8-13 16-17 26s-5 20-5 30v844c0 10 2 20 5 30s10 18 17 26c7 7 16 12 25 16s20 6 31 6h468c11 0 22-1 35-4c12-2 24-6 37-12c12-5 23-11 34-17c10-7 19-14 27-22l141-140z m-8-727v594c0 1 0 3 0 4c0 1 0 2 0 4c0 1 0 2-1 4c-1 1-1 2-1 4h-248v248c-1 0-3 0-4 1c-1 0-2 1-4 1c-1 0-2 0-4 0c-1 0-2 0-4 0h-468c-3 0-5-1-7-1c-2-1-4-2-5-3c-1-2-2-3-3-5c-1-2-1-4-1-7v-844c0-3 0-5 1-7c1-2 2-3 3-5c1-1 3-2 5-3c2 0 4-1 7-1h718c3 0 5 1 7 1c2 1 4 2 5 3c1 2 2 3 3 5c1 2 1 4 1 7z m-562 235l125-125l-63-63l-187 188l187 187l63-62l-125-125z m375 0l-125 125l62 62l188-187l-188-188l-62 63l125 125z m150 449l-139 138c-1 2-2 3-3 3c0 1-1 2-3 2c-1 1-2 2-3 2c0 1-1 2-2 3v-160h160c-2 1-3 2-3 3c-1 1-2 2-2 3c-1 1-1 2-2 3c-1 0-2 1-3 3z" horiz-adv-x="1000" />
<glyph glyph-name="mp3" unicode="&#xe806;" d="m883 654c9-9 16-19 22-29s12-21 18-34c6-13 10-25 12-37s3-23 5-35l-2-592c1-12-1-22-5-31c-5-9-10-18-17-26c-6-7-15-13-25-16c-11-3-21-6-30-7l-720 2c-9-1-19 0-30 5c-10 4-19 10-25 16c-7 7-12 15-17 26c-4 10-6 20-5 29l-1 846c1 9 3 19 6 29c4 11 9 19 17 26c8 6 16 12 25 16c9 5 20 6 32 5l466 2c12-1 24-3 36-5s24-6 37-12c13-5 24-11 34-17s19-13 28-23l139-138z m-8-727l2 592c-1 3-2 4-1 5c1 1 1 2 0 4c-1 2-1 3-1 4c0 0-1 2-2 5l-246-2l-2 250c0-2-1-2-3 0c-2 1-3 1-4 1c0-1-2-1-4 0c-2 0-3 0-3-1l-470 2c-2-2-4-2-6-2c-3 0-4-1-5-3c-1-2-2-4-3-5c-1-2-1-4 0-8l-2-842c1-4 2-6 2-8c0-1 1-3 3-5s4-3 5-3c1 0 4 0 8-2l716 2c4-1 7-1 8 0c2 2 3 3 5 3c2 1 3 3 3 5c0 3 1 5 2 6l-2 2z m-37 684l-137 137l-4 3l-6 4l-3 4l2-162l158 2c-3 3-4 4-4 5c0 1-2 2-4 5l-2 2z m-352-153c4 1 6 1 8 0c1-1 3-2 5-5c1-3 2-6 1-11l1-404c-1-5-1-8-2-11c-1-2-3-4-5-5c-3-1-5-1-8 0c-2 2-5 4-8 6l-118 118h-79l1 188h77l120 118c2 3 4 5 7 6z m65-330c-3 0-5 0-6 0c-1 1-2 1-4 2c-2 0-3 1-4 2s-2 2-4 4c-2 2-3 4-5 7c-1 3-1 6-1 9c0 3 1 6 1 9c1 3 3 5 6 7c9 10 16 22 22 34c5 12 7 25 7 38c0 13-3 26-7 38c-5 13-12 24-23 35c-2 1-3 4-5 7c-1 3-1 6-1 9c0 3 1 5 1 8c1 3 3 6 6 8c2 2 4 4 7 6c3 1 6 2 9 2c2 0 5-1 9-2c3-2 5-4 6-6c16-15 27-31 34-49c7-18 11-37 11-56c0-19-3-37-11-55c-7-19-18-35-33-49c-1-2-2-3-3-4s-2-1-4-2c-2-1-4-1-5-2c-1 0-2 0-4 0h1z m77-44c-1 1-2 1-3 2c-1 1-3 1-4 2c-2 1-3 2-4 3c-3 2-5 5-6 8c0 3-1 6-1 9c0 3 0 6 1 9c2 3 3 5 5 7c17 16 29 34 36 55c8 20 12 40 13 61c0 21-4 42-13 62c-8 20-20 38-35 54c-3 2-5 5-6 8c0 3-1 6-1 9c0 2 0 5 1 8c2 3 3 6 5 9c3 2 5 3 8 5c3 1 6 1 9 1c3 0 6 0 9-1c2-2 5-3 8-5c10-11 18-22 26-33c9-11 15-24 20-36s9-26 12-39c3-14 4-27 3-42c1-14 0-28-3-41c-3-14-7-27-12-39s-11-25-20-36c-8-12-16-23-26-33c-1-1-3-2-4-3s-2-1-4-2c-1-1-3-1-4-2c-2 0-3 0-5 0c-1 0-3 0-5 0z" horiz-adv-x="1000" />
<glyph glyph-name="mp4" unicode="&#xe807;" d="m940 519c-2 12-3 23-5 35s-6 24-12 37c-6 13-12 25-18 34s-13 20-22 29l-139 138c-9 10-18 17-28 23s-21 12-34 17c-13 6-26 10-37 12s-24 4-36 5l-466-2c-12 1-23 0-32-5c-9-4-17-10-25-16c-8-7-13-15-17-26c-3-10-5-20-6-29l2-846c-2-9 0-19 4-29c5-11 10-19 17-26c7-6 15-12 25-16c11-5 21-6 30-5l720-2c9 1 19 4 30 7c10 3 19 9 25 16c7 8 12 17 17 26c4 9 6 19 5 31l2 592z m-249 236l6-4l4-3l137-137l2-2c2-3 4-4 4-5c0-1 1-2 4-5l-158-2l-2 162l3-4z m-559-843c0 1-1 2-2 2c-2 2-3 4-3 5c0 2-1 4-2 8l0 111h125v-126h-118z m-6 251l0 125h124v-125h-124z m124 250h-124l0 125h124v-125z m-123 250l0 106c-1 4-1 6 0 8c1 1 2 3 3 5c1 2 2 3 5 3c2 0 4 0 6 2l109-1v-123h-123z m750-738c-1-1-2-3-2-6c0-2-1-4-3-5c-2 0-3-1-5-3c-1-1-4-1-8 0l-546-1v625v65v58v128l298-1c0 1 1 1 3 1c2-1 4-1 4 0c1 0 2 0 4-1c2-2 3-2 3 0l2-250l246 2c1-3 2-5 2-5c0-1 0-2 1-4c1-2 1-3 0-4c-1-1 0-2 1-5l-2-592l2-2z m-439 550l312-188l-312-187v375z" horiz-adv-x="1000" />
<glyph glyph-name="odf" unicode="&#xe808;" d="m883 652c8-7 15-16 21-27c7-11 13-22 18-34c5-11 9-24 12-37c2-13 4-24 4-33v-596c0-9-2-19-6-29c-4-11-10-19-17-26c-7-6-16-12-25-16c-10-5-20-6-31-5l-718-2c-11 1-21 4-31 7c-9 3-18 9-25 16c-7 8-13 17-17 26c-4 9-5 19-5 31v842c0 12 1 22 5 31c4 9 10 18 17 26c7 7 16 13 25 16c10 3 20 6 31 7l468-2c11 1 22 0 35-3c12-3 24-7 37-12c12-4 23-10 34-17c10-7 19-14 27-21l141-142z m-8-727v596c0 4 0 6 0 7c0 0-1 3-2 7l-248 2v246c-1 1-3 2-4 2c-1 0-2 0-4 1c-1 0-2 0-4 0c-1-1-2-1-4 1l-468-2c-3 1-5 1-7 0c-2-2-4-3-5-3c-1-1-2-3-3-5c-1-3-1-5-1-6v-846c0-1 0-3 1-6c1-2 2-4 3-5c1 0 3-1 5-3s4-1 7 0l718-2c3 2 5 2 7 2s4 1 5 3c1 2 2 4 3 5c1 2 1 4 1 8v-2z m-225 332c12-1 24-2 37-2c12 0 24-1 36-5c11-3 23-6 35-9c12-4 23-10 33-19c-17 1-34 1-51 0c-17-1-34-3-50-5c-17-2-34-5-50-10c-17-4-33-10-48-16c-12-7-23-13-33-20c-11-6-21-14-32-22c-10-9-19-17-28-27c-8-9-16-19-22-31c-19 17-38 31-59 41c-21 11-43 19-65 27c-23 7-46 11-70 12c-23 2-47 2-70 0c-7-2-13-4-19-4s-12-1-18-3c-7-1-13-2-20-2c-6 0-13-1-19-2c22 19 47 34 74 44s55 16 84 19c29 3 57 3 86-2c28-4 56-12 82-22c14 7 29 15 44 23c15 8 30 14 46 19c15 4 31 8 48 11c16 4 32 5 49 3v2z m24 131c14 7 29 12 46 17c16 4 32 6 49 6c16-1 32-3 48-6c17-4 32-11 46-23c-17 4-34 5-51 3s-35-4-51-8c-16-3-32-9-47-18c-15-9-28-20-40-31c-12 10-25 20-40 29c-15 9-31 15-48 18c-17 4-34 6-51 7c-17 2-34 1-51-2c13 12 28 20 44 24c17 4 33 6 49 7c16 0 33-2 50-6c17-5 33-10 47-17z m164 221l-139 140c-1 0-2 1-3 2c0 2-1 2-3 2c-1 0-2 1-3 2c0 2-1 2-2 2v-158l160-2c-2 3-3 4-3 4c-1 0-2 1-2 3c-1 2-1 3-2 3c-1 0-2 1-3 4v-2z" horiz-adv-x="1000" />
<glyph glyph-name="pdf" unicode="&#xe809;" d="m883 654c8-8 15-17 21-28c7-10 13-21 18-34c5-12 9-25 12-37c2-12 4-24 4-34v-594c0-10-2-20-6-30s-10-18-17-26c-7-7-16-12-25-16s-20-6-31-6h-718c-11 0-21 2-31 6s-18 9-25 16c-7 8-13 16-17 26s-5 20-5 30v844c0 10 2 20 5 30s10 18 17 26c7 7 16 12 25 16s20 6 31 6h468c11 0 22-1 35-4c12-2 24-6 37-12c12-5 23-11 34-17c10-7 19-14 27-22l141-140z m-8-727v594c0 1 0 3 0 4c0 1 0 2 0 4c0 1 0 2-1 4c-1 1-1 2-1 4h-248v248c-1 0-3 0-4 1c-1 0-2 1-4 1c-1 0-2 0-4 0c-1 0-2 0-4 0h-468c-3 0-5-1-7-1c-2-1-4-2-5-3c-1-2-2-3-3-5c-1-2-1-4-1-7v-844c0-3 0-5 1-7c1-2 2-3 3-5c1-1 3-2 5-3c2 0 4-1 7-1h718c3 0 5 1 7 1c2 1 4 2 5 3c1 2 2 3 3 5c1 2 1 4 1 7z m-53 346c2-1 3-3 4-4c2-1 2-3 3-4c1-1 1-3 2-4c1-1 1-2 1-4c0-5 0-10 1-14c1-5 1-9 0-13c-1-4-2-8-3-12c-1-4-3-8-6-12c-1-1-2-2-4-3c-1-2-3-3-5-4c-1-2-3-3-5-3c-2-1-5-2-7-3c-2 0-3-1-4-1c-1-1-3-1-5-1s-4 0-5 0c-1 0-3 0-6 0c-11 0-24 1-38 4c-14 2-28 6-44 11c-15 6-31 11-47 18c-15 7-30 14-45 22c-19-3-39-6-59-10c-20-4-41-8-61-13c-20-5-40-10-60-16c-20-5-40-12-58-18c-17-29-32-54-47-74c-14-21-27-38-40-52c-12-14-24-24-36-30c-12-7-23-10-33-10c-1 0-3 0-5 0s-4 0-6 1c-2 0-4 1-6 2c-2 0-3 1-5 3l-15 8c-3 1-5 2-7 4s-3 5-4 7c-1 3-1 6-1 9c0 3 1 6 2 9c1 8 4 16 10 24c5 9 12 18 21 27c9 9 20 18 31 27c12 9 25 18 39 25c2 2 4 3 8 5s8 4 13 7c5 3 8 5 12 6c3 1 5 3 5 4l17 8c4 7 8 15 13 22c4 7 9 15 14 24c4 8 9 17 13 26c5 9 10 19 15 29l2 4c5 9 10 19 15 28c4 10 9 20 14 31c5 10 10 21 15 31c4 10 9 21 14 31l6 16c-6 22-12 44-16 64c-5 21-8 40-10 57c-2 17-3 33-3 48c0 15 1 28 4 40c1 4 3 7 6 11c2 3 5 6 9 7c3 2 7 4 11 5c5 2 10 2 15 2h10c5 0 9 0 12-2c4-1 7-3 10-6c3-2 6-5 8-8c2-4 4-7 5-11l2-4c0-1 0-2 1-3c0-1 1-1 1-2c0-1 0-1 0-3c0-1 0-2 0-4c1-10 1-24 0-43c-1-18-3-36-5-53s-6-39-11-64c0-1 0-2 0-4c0-1 0-2-1-4c0-1-1-3-1-6c4-14 9-27 16-40c6-12 13-24 20-36c7-11 16-23 25-33c9-10 18-20 27-29c4-3 8-6 12-9c4-3 8-6 12-9c3-2 8-5 12-8c5-2 9-5 13-7c9 1 19 2 28 2c10 1 19 2 28 2c8 1 17 2 25 2c8 1 17 1 24 1c12 0 23 0 32-2c9-1 17-2 24-3c7-2 13-4 19-6c5-3 9-6 13-10z m-615-219c5 3 11 6 18 11c6 4 13 11 21 20c8 10 17 21 27 34c9 13 20 28 32 46c-3-1-5-2-6-3c-1-2-3-3-4-4c-1-2-3-3-4-4c-1-2-3-2-4-2c-10-9-20-18-29-28c-9-9-17-18-25-27c-7-9-13-17-17-24c-5-7-8-14-9-19z m182 172c13 5 26 10 40 15c13 4 27 8 42 12c14 4 29 8 45 12s32 7 49 10c-2 1-3 2-4 3c-2 0-3 1-3 3c-1 1-2 2-3 3c-2 0-3 1-4 3c-8 6-16 13-24 21s-15 16-21 25c-7 8-13 17-20 26c-6 9-12 19-17 29c-3-6-6-14-9-22c-3-9-7-18-12-27c-4-9-9-18-13-28c-5-10-10-20-17-32c-3-4-5-8-8-13c-2-4-5-9-7-14c-2-4-4-9-6-13c-3-5-6-9-8-13z m78 428c-1 0-2-3-3-7c-1-5-1-10-2-17c-1-6-1-14-1-23c0-7 0-14 1-22c1-7 2-15 3-22c1-7 2-15 4-23c1-7 2-15 4-21c2 5 5 10 7 15c2 4 3 9 4 15c2 6 3 12 3 19c1 6 1 13 1 21s0 16-1 24c0 8-2 14-4 20s-4 11-6 15c-3 4-6 6-10 6z m371-43l-139 138c-1 2-2 3-3 3c0 1-1 2-3 2c-1 1-2 2-3 2c0 1-1 2-2 3v-160h160c-2 1-3 2-3 3c-1 1-2 2-2 3c-1 1-1 2-2 3c-1 0-2 1-3 3z m-29-381c1 1 2 3 3 4c0 1 0 3-1 5c-2 2-4 4-7 7c-4 2-8 4-15 5c-5 2-10 3-15 3c-4 1-8 2-12 2c-4 1-8 1-12 1s-9 0-16 0c-2 0-5 0-9 0s-8 0-11 0c-3 0-7 0-11-1c-4 0-8-1-12-1c11-4 20-8 29-11c8-4 17-8 25-10c9-3 16-5 23-6c6-1 13-2 19-2c1 0 3 0 6 0c3 0 5 0 7 1c2 1 5 2 9 3z" horiz-adv-x="1000" />
<glyph glyph-name="png" unicode="&#xe80a;" d="m883 654c9-9 16-19 22-29s12-21 18-34c6-13 10-25 12-37s3-23 5-35l-2-592c1-12-1-22-5-31c-5-9-10-18-17-26c-6-7-15-13-25-16c-11-3-21-6-30-7l-720 2c-9-1-19 0-30 5c-10 4-19 10-25 16c-7 7-12 15-17 26c-4 10-6 20-5 29l-1 846c1 9 3 19 6 29c4 11 9 19 17 26c8 6 16 12 25 16c9 5 20 6 32 5l466 2c12-1 24-3 36-5s24-6 37-12c13-5 24-11 34-17s19-13 28-23l139-138z m-8-727l2 592c-1 3-2 4-1 5c1 1 1 2 0 4c-1 2-1 3-1 4c0 0-1 2-2 5l-246-2l-2 250c0-2-1-2-3 0c-2 1-3 1-4 1c0-1-2-1-4 0c-2 0-3 0-3-1l-470 2c-2-2-4-2-6-2c-3 0-4-1-5-3c-1-2-2-4-3-5c-1-2-1-4 0-8l-2-842c1-4 2-6 2-8c0-1 1-3 3-5s4-3 5-3c1 0 4 0 8-2l716 2c4-1 7-1 8 0c2 2 3 3 5 3c2 1 3 3 3 5c0 3 1 5 2 6l-2 2z m-37 684l-137 137l-4 3l-6 4l-3 4l2-162l158 2c-3 3-4 4-4 5c0 1-2 2-4 5l-2 2z m-131-312c9-4 19-6 30-6c11 0 22 2 31 6c9 5 17 10 25 17c7 8 12 16 17 25c4 10 6 20 6 31c0 11-2 21-6 30c-5 9-10 18-17 25c-8 7-16 13-25 17c-10 5-20 7-31 7c-11 0-21-2-30-7c-9-4-18-10-25-17c-7-7-13-16-17-25c-5-9-7-19-7-30c0-11 2-21 7-31c4-9 10-17 17-25c7-7 16-12 25-17z m-154-165l-211 263l-158-422h632l-158 238l-105-79z" horiz-adv-x="1000" />
<glyph glyph-name="doc" unicode="&#xe801;" d="m883 654c8-8 15-17 21-28c7-10 13-21 18-34c5-12 9-25 12-37c2-12 4-24 4-34v-594c0-10-2-20-6-30s-10-18-17-26c-7-7-16-12-25-16s-20-6-31-6h-718c-11 0-21 2-31 6s-18 9-25 16c-7 8-13 16-17 26s-5 20-5 30v844c0 10 2 20 5 30s10 18 17 26c7 7 16 12 25 16s20 6 31 6h468c11 0 22-1 35-4c12-2 24-6 37-12c12-5 23-11 34-17c10-7 19-14 27-22l141-140z m-8-727v594c0 1 0 3 0 4c0 1 0 2 0 4c0 1 0 2-1 4c-1 1-1 2-1 4h-248v248c-1 0-3 0-4 1c-1 0-2 1-4 1c-1 0-2 0-4 0c-1 0-2 0-4 0h-468c-3 0-5-1-7-1c-2-1-4-2-5-3c-1-2-2-3-3-5c-1-2-1-4-1-7v-844c0-3 0-5 1-7c1-2 2-3 3-5c1-1 3-2 5-3c2 0 4-1 7-1h718c3 0 5 1 7 1c2 1 4 2 5 3c1 2 2 3 3 5c1 2 1 4 1 7z m-250 547h166l-127-500h-98l-66 295l-74-295h-108l-109 500h109l55-310l76 310h104l64-310l51 220h-43v90z m213 137l-139 138c-1 2-2 3-3 3c0 1-1 2-3 2c-1 1-2 2-3 2c0 1-1 2-2 3v-160h160c-2 1-3 2-3 3c-1 1-2 2-2 3c-1 1-1 2-2 3c-1 0-2 1-3 3z" horiz-adv-x="1000" />
<glyph glyph-name="ppt" unicode="&#xe80c;" d="m883 654c8-8 15-17 21-28c7-10 13-21 18-34c5-12 9-25 12-37c2-12 4-24 4-34v-594c0-10-2-20-6-30s-10-18-17-26c-7-7-16-12-25-16s-20-6-31-6h-718c-11 0-21 2-31 6s-18 9-25 16c-7 8-13 16-17 26s-5 20-5 30v844c0 10 2 20 5 30s10 18 17 26c7 7 16 12 25 16s20 6 31 6h468c11 0 22-1 35-4c12-2 24-6 37-12c12-5 23-11 34-17c10-7 19-14 27-22l141-140z m-8-727v594c0 1 0 3 0 4c0 1 0 2 0 4c0 1 0 2-1 4c-1 1-1 2-1 4h-248v248c-1 0-3 0-4 1c-1 0-2 1-4 1c-1 0-2 0-4 0c-1 0-2 0-4 0h-468c-3 0-5-1-7-1c-2-1-4-2-5-3c-1-2-2-3-3-5c-1-2-1-4-1-7v-844c0-3 0-5 1-7c1-2 2-3 3-5c1-1 3-2 5-3c2 0 4-1 7-1h718c3 0 5 1 7 1c2 1 4 2 5 3c1 2 2 3 3 5c1 2 1 4 1 7z m-687 422v-62h187v62h-187z m0-125v-62h187v62h-187z m0-125v-62h187v62h-187z m375 63v183c-19-2-35-9-50-18c-15-10-28-22-39-35c-11-13-20-28-27-45c-6-16-9-35-9-54c0-22 4-43 12-62c9-19 20-35 33-49s30-24 49-33c19-8 40-12 62-12c19 0 38 3 54 9c17 7 32 16 45 27c13 11 25 24 35 39c9 15 16 31 18 50h-183z m93 250c-2 0-5 0-8 0c-2 0-5-1-7-1c-3-1-6-1-8-1c-3 0-5-1-8-2v-184h184c1 3 2 5 2 8c0 2 0 5 1 8c0 2 1 5 1 7c0 3 0 6 0 8c0 22-5 43-13 62c-9 19-20 35-33 49s-30 24-49 33c-19 8-40 13-62 13z m182 199l-139 138c-1 2-2 3-3 3c0 1-1 2-3 2c-1 1-2 2-3 2c0 1-1 2-2 3v-160h160c-2 1-3 2-3 3c-1 1-2 2-2 3c-1 1-1 2-2 3c-1 0-2 1-3 3z" horiz-adv-x="1000" />
<glyph glyph-name="psd" unicode="&#xe80d;" d="m883 654c9-9 16-19 22-29s12-21 18-34c6-13 10-25 12-37s3-23 5-35l-2-592c1-12-1-22-5-31c-5-9-10-18-17-26c-6-7-15-13-25-16c-11-3-21-6-30-7l-720 2c-9-1-19 0-30 5c-10 4-19 10-25 16c-7 7-12 15-17 26c-4 10-6 20-5 29l-1 846c1 9 3 19 6 29c4 11 9 19 17 26c8 6 16 12 25 16c9 5 20 6 32 5l466 2c12-1 24-3 36-5s24-6 37-12c13-5 24-11 34-17s19-13 28-23l139-138z m-8-727l2 592c-1 3-2 4-1 5c1 1 1 2 0 4c-1 2-1 3-1 4c0 0-1 2-2 5l-246-2l-2 250c0-2-1-2-3 0c-2 1-3 1-4 1c0-1-2-1-4 0c-2 0-3 0-3-1l-470 2c-2-2-4-2-6-2c-3 0-4-1-5-3c-1-2-2-4-3-5c-1-2-1-4 0-8l-2-842c1-4 2-6 2-8c0-1 1-3 3-5s4-3 5-3c1 0 4 0 8-2l716 2c4-1 7-1 8 0c2 2 3 3 5 3c2 1 3 3 3 5c0 3 1 5 2 6l-2 2z m-37 684l-137 137l-4 3l-6 4l-3 4l2-162l158 2c-3 3-4 4-4 5c0 1-2 2-4 5l-2 2z m-522-268c23 4 56 7 103 7c47 0 80-9 103-27c21-17 36-45 36-78s-11-61-31-80c-26-24-65-35-110-35c-10 0-19 0-26 1v-120h-75v332z m75-153c7-1 15-2 26-2c40 0 65 21 65 55c0 31-21 50-59 50c-16 0-26-2-32-3v-100z m202-113c14-8 43-18 65-18c23 0 33 8 33 20s-8 19-36 28c-51 17-70 45-70 74c0 45 39 80 100 80c28 0 54-7 69-14l-14-53c-11 6-32 14-53 14c-18 0-29-7-29-20c0-11 10-17 40-28c46-16 66-39 66-75c0-46-36-79-106-79c-32 0-60 7-79 17l14 54z" horiz-adv-x="1000" />
<glyph glyph-name="ttf" unicode="&#xe80e;" d="m883 654c9-9 16-19 22-29s12-21 18-34c6-13 10-25 12-37s3-23 5-35l-2-592c1-12-1-22-5-31c-5-9-10-18-17-26c-6-7-15-13-25-16c-11-3-21-6-30-7l-720 2c-9-1-19 0-30 5c-10 4-19 10-25 16c-7 7-12 15-17 26c-4 10-6 20-5 29l-1 846c1 9 3 19 6 29c4 11 9 19 17 26c8 6 16 12 25 16c9 5 20 6 32 5l466 2c12-1 24-3 36-5s24-6 37-12c13-5 24-11 34-17s19-13 28-23l139-138z m-8-727l2 592c-1 3-2 4-1 5c1 1 1 2 0 4c-1 2-1 3-1 4c0 0-1 2-2 5l-246-2l-2 250c0-2-1-2-3 0c-2 1-3 1-4 1c0-1-2-1-4 0c-2 0-3 0-3-1l-470 2c-2-2-4-2-6-2c-3 0-4-1-5-3c-1-2-2-4-3-5c-1-2-1-4 0-8l-2-842c1-4 2-6 2-8c0-1 1-3 3-5s4-3 5-3c1 0 4 0 8-2l716 2c4-1 7-1 8 0c2 2 3 3 5 3c2 1 3 3 3 5c0 3 1 5 2 6l-2 2z m-37 684l-137 137l-4 3l-6 4l-3 4l2-162l158 2c-3 3-4 4-4 5c0 1-2 2-4 5l-2 2z m-410-613v17c19 3 29 6 32 8c3 2 5 5 5 9c0 2-1 4-2 7c-2 6-10 26-24 58c-21 0-39 0-53 0c-12 0-32 0-59 0c-17-40-26-62-26-66c0-4 2-6 4-8s13-5 32-8v-17c-19 1-37 2-55 2c-19 0-38-1-57-2v17c13 3 23 6 28 10c4 2 7 6 10 11c6 9 23 46 53 111c19 41 46 102 81 182h18c14-36 43-102 88-200c25-55 39-86 44-93c4-5 7-9 10-11c4-2 14-6 32-10v-17c-27 1-52 2-75 2c-23 0-51-1-86-2z m-44 233l-46-108l45 0c11 0 26 0 47 0l-46 108z m257-89l-21 3c5 21 8 40 9 57c28 14 57 20 87 20c18 0 32-3 42-8s18-14 22-23c4-10 6-25 6-46l-1-78c0-15 1-24 3-28c3-4 6-6 10-6c5 0 12 3 22 8l9-13c-21-15-36-24-46-29c-7-3-14-5-21-5c-9 0-16 3-22 8s-11 11-13 21c-18-13-31-21-39-24c-7-3-16-5-26-5c-16 0-29 5-39 16c-10 11-15 25-15 43c0 12 4 24 10 34c5 8 13 15 26 22l83 39c0 18-3 31-9 37c-5 6-13 9-24 9c-11 0-20-3-28-10c-8-7-17-21-25-42z m86-18c-25-12-41-22-48-29s-10-18-10-30c0-12 3-21 8-27s11-8 19-8c6 0 11 1 17 5s9 10 11 17c2 8 3 23 3 46c0 5 0 14 0 26z" horiz-adv-x="1000" />
<glyph glyph-name="txt" unicode="&#xe80f;" d="m883 654c9-9 16-19 22-29s12-21 18-34c6-13 10-25 12-37s3-23 5-35l-2-592c1-12-1-22-5-31c-5-9-10-18-17-26c-6-7-15-13-25-16c-11-3-21-6-30-7l-720 2c-9-1-19 0-30 5c-10 4-19 10-25 16c-7 7-12 15-17 26c-4 10-6 20-5 29l-1 846c1 9 3 19 6 29c4 11 9 19 17 26c8 6 16 12 25 16c9 5 20 6 32 5l466 2c12-1 24-3 36-5s24-6 37-12c13-5 24-11 34-17s19-13 28-23l139-138z m-8-727l2 592c-1 3-2 4-1 5c1 1 1 2 0 4c-1 2-1 3-1 4c0 0-1 2-2 5l-246-2l-2 250c0-2-1-2-3 0c-2 1-3 1-4 1c0-1-2-1-4 0c-2 0-3 0-3-1l-470 2c-2-2-4-2-6-2c-3 0-4-1-5-3c-1-2-2-4-3-5c-1-2-1-4 0-8l-2-842c1-4 2-6 2-8c0-1 1-3 3-5s4-3 5-3c1 0 4 0 8-2l716 2c4-1 7-1 8 0c2 2 3 3 5 3c2 1 3 3 3 5c0 3 1 5 2 6l-2 2z m-37 684l-137 137l-4 3l-6 4l-3 4l2-162l158 2c-3 3-4 4-4 5c0 1-2 2-4 5l-2 2z m-88-589v62h-500v-62h500z m0 125v62h-500v-62h500z m0 187h-500v-62h500v62z" horiz-adv-x="1000" />
<glyph glyph-name="unknown" unicode="&#xe810;" d="m653 66c2-6 4-13 4-21c0-7-2-14-4-21c-3-7-7-13-12-17s-11-9-17-12c-7-3-14-5-22-5c0 0 0 0-1 0c0 0 0 0-1 0c-7 0-14 2-21 5c-7 3-12 7-17 12s-9 10-12 17c-3 7-4 14-4 21c0 8 1 15 4 21c3 7 7 13 12 18s10 8 17 11c7 3 14 5 21 5c1 0 1 0 1 0c1 0 1 0 1 0c8 0 15-2 22-5c6-3 12-6 17-11s9-11 12-18z m-153 18c-5 5-10 8-17 11c-7 3-14 5-21 5c-8 0-15-2-22-5c-6-3-12-6-17-11s-9-11-12-18c-3-6-4-13-4-21c0-7 1-14 4-21c3-7 7-13 12-17s11-9 17-12c7-3 14-5 22-5c7 0 14 2 21 5c7 3 12 7 17 12s9 10 12 17c3 7 4 14 4 21c0 8-1 15-4 21c-3 7-7 13-12 18z m280 0c-5 5-11 8-18 11c-6 3-14 5-21 5c-8 0-15-2-21-5c-7-3-13-6-18-11s-8-11-11-18c-3-6-5-13-5-21c0-7 2-14 5-21c3-7 7-13 11-17s11-9 18-12c6-3 13-5 21-5c7 0 15 2 21 5c7 3 13 7 18 12s8 10 11 17c3 7 5 14 5 21c0 8-2 15-5 21c-3 7-7 13-11 18z m158-157c1-12-1-22-5-31c-5-9-10-18-17-26c-6-7-15-13-25-16c-11-3-21-6-30-7l-720 2c-9-1-19 0-30 5c-10 4-19 10-25 16c-7 7-12 15-17 26c-4 10-6 20-5 29l-1 846c1 9 3 19 6 29c4 11 9 19 17 26c8 6 16 12 25 16c9 5 20 6 32 5l466 2c12-1 24-3 36-5s24-6 37-12c13-5 24-11 34-17s19-13 28-23l139-138c9-9 16-19 22-29s12-21 18-34c6-13 10-25 12-37s3-23 5-35l-2-592z m-250 832l2-162l158 2c-3 3-4 4-4 5c0 1-2 2-4 5l-2 2l-137 137l-4 3l-6 4l-3 4z m187-832l2 592c-1 3-2 4-1 5c1 1 1 2 0 4c-1 2-1 3-1 4c0 0-1 2-2 5l-246-2l-2 250c0-2-1-2-3 0c-2 1-3 1-4 1c0-1-2-1-4 0c-2 0-3 0-3-1l-470 2c-2-2-4-2-6-2c-3 0-4-1-5-3c-1-2-2-4-3-5c-1-2-1-4 0-8l-2-842c1-4 2-6 2-8c0-1 1-3 3-5s4-3 5-3c1 0 4 0 8-2l716 2c4-1 7-1 8 0c2 2 3 3 5 3c2 1 3 3 3 5c0 3 1 5 2 6l-2 2z" horiz-adv-x="1000" />
<glyph glyph-name="xls" unicode="&#xe811;" d="m883 654c8-8 15-17 21-28c7-10 13-21 18-34c5-12 9-25 12-37c2-12 4-24 4-34v-594c0-10-2-20-6-30s-10-18-17-26c-7-7-16-12-25-16s-20-6-31-6h-718c-11 0-21 2-31 6s-18 9-25 16c-7 8-13 16-17 26s-5 20-5 30v844c0 10 2 20 5 30s10 18 17 26c7 7 16 12 25 16s20 6 31 6h468c11 0 22-1 35-4c12-2 24-6 37-12c12-5 23-11 34-17c10-7 19-14 27-22l141-140z m-8-727v594c0 1 0 3 0 4c0 1 0 2 0 4c0 1 0 2-1 4c-1 1-1 2-1 4h-248v248c-1 0-3 0-4 1c-1 0-2 1-4 1c-1 0-2 0-4 0c-1 0-2 0-4 0h-468c-3 0-5-1-7-1c-2-1-4-2-5-3c-1-2-2-3-3-5c-1-2-1-4-1-7v-844c0-3 0-5 1-7c1-2 2-3 3-5c1-1 3-2 5-3c2 0 4-1 7-1h718c3 0 5 1 7 1c2 1 4 2 5 3c1 2 2 3 3 5c1 2 1 4 1 7z m-309 311l180-264h-137l-109 162l-49-72h59v-90h-256l180 264l-161 236h133l94-139l94 139h133l-161-236z m272 373l-139 138c-1 2-2 3-3 3c0 1-1 2-3 2c-1 1-2 2-3 2c0 1-1 2-2 3v-160h160c-2 1-3 2-3 3c-1 1-2 2-2 3c-1 1-1 2-2 3c-1 0-2 1-3 3z" horiz-adv-x="1000" />
<glyph glyph-name="xml" unicode="&#xe812;" d="m883 654c9-9 16-19 22-29s12-21 18-34c6-13 10-25 12-37s3-23 5-35l-2-592c1-12-1-22-5-31c-5-9-10-18-17-26c-6-7-15-13-25-16c-11-3-21-6-30-7l-720 2c-9-1-19 0-30 5c-10 4-19 10-25 16c-7 7-12 15-17 26c-4 10-6 20-5 29l-1 846c1 9 3 19 6 29c4 11 9 19 17 26c8 6 16 12 25 16c9 5 20 6 32 5l466 2c12-1 24-3 36-5s24-6 37-12c13-5 24-11 34-17s19-13 28-23l139-138z m-8-727l2 592c-1 3-2 4-1 5c1 1 1 2 0 4c-1 2-1 3-1 4c0 0-1 2-2 5l-246-2l-2 250c0-2-1-2-3 0c-2 1-3 1-4 1c0-1-2-1-4 0c-2 0-3 0-3-1l-470 2c-2-2-4-2-6-2c-3 0-4-1-5-3c-1-2-2-4-3-5c-1-2-1-4 0-8l-2-842c1-4 2-6 2-8c0-1 1-3 3-5s4-3 5-3c1 0 4 0 8-2l716 2c4-1 7-1 8 0c2 2 3 3 5 3c2 1 3 3 3 5c0 3 1 5 2 6l-2 2z m-37 684l-137 137l-4 3l-6 4l-3 4l2-162l158 2c-3 3-4 4-4 5c0 1-2 2-4 5l-2 2z m-400-582h-63l-125 125l125 125h63l-125-125l125-125z m125 313l-79-375h-46l78 375h47z m187-188l-125-125h-62l125 125l-125 125h62l125-125z" horiz-adv-x="1000" />
<glyph glyph-name="zip" unicode="&#xe813;" d="m883 654c8-8 15-17 21-28c7-10 13-21 18-34c5-12 9-25 12-37c2-12 4-24 4-34v-594c0-10-2-20-6-30s-10-18-17-26c-7-7-16-12-25-16s-20-6-31-6h-718c-11 0-21 2-31 6s-18 9-25 16c-7 8-13 16-17 26s-5 20-5 30v844c0 10 2 20 5 30s10 18 17 26c7 7 16 12 25 16s20 6 31 6h468c11 0 22-1 35-4c12-2 24-6 37-12c12-5 23-11 34-17c10-7 19-14 27-22l141-140z m-8-727v594c0 1 0 3 0 4c0 1 0 2 0 4c0 1 0 2-1 4c-1 1-1 2-1 4h-248v248c-1 0-3 0-4 1c-1 0-2 1-4 1c-1 0-2 0-4 0c-1 0-2 0-4 0h-468c-3 0-5-1-7-1c-2-1-4-2-5-3c-1-2-2-3-3-5c-1-2-1-4-1-7v-844c0-3 0-5 1-7c1-2 2-3 3-5c1-1 3-2 5-3c2 0 4-1 7-1h718c3 0 5 1 7 1c2 1 4 2 5 3c1 2 2 3 3 5c1 2 1 4 1 7z m-562 672h93v63h-93v-63z m0-125h93v63h-93v-63z m0-125h93v63h-93v-63z m93 0h94v-281c0-4-1-8-3-12s-4-7-7-10c-2-2-6-5-9-7s-8-2-12-2h-125c-4 0-8 1-12 2s-7 5-10 7c-2 3-5 6-7 10s-2 8-2 12v219h93v62z m63-250v63h-125v-63h125z m-63 563h94v62h-94v-62z m0-125h94v62h-94v-62z m0-125h94v62h-94v-62z m432 199l-139 138c-1 2-2 3-3 3c0 1-1 2-3 2c-1 1-2 2-3 2c0 1-1 2-2 3v-160h160c-2 1-3 2-3 3c-1 1-2 2-2 3c-1 1-1 2-2 3c-1 0-2 1-3 3z" horiz-adv-x="1000" />
<glyph glyph-name="ai" unicode="&#xe814;" d="m883 654c9-9 16-19 22-29s12-21 18-34c6-13 10-25 12-37s3-23 5-35l-2-592c1-12-1-22-5-31c-5-9-10-18-17-26c-6-7-15-13-25-16c-11-3-21-6-30-7l-720 2c-9-1-19 0-30 5c-10 4-19 10-25 16c-7 7-12 15-17 26c-4 10-6 20-5 29l-1 846c1 9 3 19 6 29c4 11 9 19 17 26c8 6 16 12 25 16c9 5 20 6 32 5l466 2c12-1 24-3 36-5s24-6 37-12c13-5 24-11 34-17s19-13 28-23l139-138z m-8-727l2 592c-1 3-2 4-1 5c1 1 1 2 0 4c-1 2-1 3-1 4c0 0-1 2-2 5l-246-2l-2 250c0-2-1-2-3 0c-2 1-3 1-4 1c0-1-2-1-4 0c-2 0-3 0-3-1l-470 2c-2-2-4-2-6-2c-3 0-4-1-5-3c-1-2-2-4-3-5c-1-2-1-4 0-8l-2-842c1-4 2-6 2-8c0-1 1-3 3-5s4-3 5-3c1 0 4 0 8-2l716 2c4-1 7-1 8 0c2 2 3 3 5 3c2 1 3 3 3 5c0 3 1 5 2 6l-2 2z m-37 684l-137 137l-4 3l-6 4l-3 4l2-162l158 2c-3 3-4 4-4 5c0 1-2 2-4 5l-2 2z m-411-514l-24-86h-79l103 337h100l105-337h-82l-26 86h-97z m86 57l-21 72c-6 20-12 45-17 65h-1c-5-20-10-46-16-65l-20-72h75z m237 169c0-21-16-38-41-38c-24 0-40 17-40 38c0 22 16 39 40 39c25 0 40-17 41-39z m-79-312v244h76v-244h-76z" horiz-adv-x="1000" />
<glyph glyph-name="blank" unicode="&#xe815;" d="m883 654c9-9 16-19 22-29s12-21 18-34c6-13 10-25 12-37s3-23 5-35l-2-592c1-12-1-22-5-31c-5-9-10-18-17-26c-6-7-15-13-25-16c-11-3-21-6-30-7l-720 2c-9-1-19 0-30 5c-10 4-19 10-25 16c-7 7-12 15-17 26c-4 10-6 20-5 29l-1 846c1 9 3 19 6 29c4 11 9 19 17 26c8 6 16 12 25 16c9 5 20 6 32 5l466 2c12-1 24-3 36-5s24-6 37-12c13-5 24-11 34-17s19-13 28-23l139-138z m-8-727l2 592c-1 3-2 4-1 5c1 1 1 2 0 4c-1 2-1 3-1 4c0 0-1 2-2 5l-246-2l-2 250c0-2-1-2-3 0c-2 1-3 1-4 1c0-1-2-1-4 0c-2 0-3 0-3-1l-470 2c-2-2-4-2-6-2c-3 0-4-1-5-3c-1-2-2-4-3-5c-1-2-1-4 0-8l-2-842c1-4 2-6 2-8c0-1 1-3 3-5s4-3 5-3c1 0 4 0 8-2l716 2c4-1 7-1 8 0c2 2 3 3 5 3c2 1 3 3 3 5c0 3 1 5 2 6l-2 2z m-37 684l-137 137l-4 3l-6 4l-3 4l2-162l158 2c-3 3-4 4-4 5c0 1-2 2-4 5l-2 2z" horiz-adv-x="1000" />
<glyph glyph-name="ppj" unicode="&#xe80b;" d="m883 654c9-9 16-19 22-29s12-21 18-34c6-13 10-25 12-37s3-23 5-35l-2-592c1-12-1-22-5-31c-5-9-10-18-17-26c-6-7-15-13-25-16c-11-3-21-6-30-7l-720 2c-9-1-19 0-30 5c-10 4-19 10-25 16c-7 7-12 15-17 26c-4 10-6 20-5 29l-1 846c1 9 3 19 6 29c4 11 9 19 17 26c8 6 16 12 25 16c9 5 20 6 32 5l466 2c12-1 24-3 36-5s24-6 37-12c13-5 24-11 34-17s19-13 28-23l139-138z m-8-727l2 592c-1 3-2 4-1 5c1 1 1 2 0 4c-1 2-1 3-1 4c0 0-1 2-2 5l-246-2l-2 250c0-2-1-2-3 0c-2 1-3 1-4 1c0-1-2-1-4 0c-2 0-3 0-3-1l-470 2c-2-2-4-2-6-2c-3 0-4-1-5-3c-1-2-2-4-3-5c-1-2-1-4 0-8l-2-842c1-4 2-6 2-8c0-1 1-3 3-5s4-3 5-3c1 0 4 0 8-2l716 2c4-1 7-1 8 0c2 2 3 3 5 3c2 1 3 3 3 5c0 3 1 5 2 6l-2 2z m-37 684l-137 137l-4 3l-6 4l-3 4l2-162l158 2c-3 3-4 4-4 5c0 1-2 2-4 5l-2 2z m-496-268c23 4 56 7 103 7c47 0 80-9 103-27c21-17 36-45 36-78s-11-61-31-80c-26-24-65-35-110-35c-10 0-19 0-26 1v-120h-75v332z m75-153c7-1 15-2 26-2c40 0 65 21 65 55c0 31-21 50-59 50c-16 0-26-2-32-3v-100z m208-15c0 36-1 59-2 80h66l2-45h2c13 36 43 51 66 51c7 0 11 0 16-1v-72c-5 1-12 2-20 2c-28 0-47-15-52-38c-1-5-2-11-2-17v-124h-76v164z" horiz-adv-x="1000" />
</font>
</defs>
</svg>
