<?xml version="1.0" encoding="utf-8"?>
<!-- Generator: Adobe Illustrator 15.0.0, SVG Export Plug-In . SVG Version: 6.00 Build 0)  -->
<!DOCTYPE svg PUBLIC "-//W3C//DTD SVG 1.1//EN" "http://www.w3.org/Graphics/SVG/1.1/DTD/svg11.dtd">
<svg version="1.1" xmlns="http://www.w3.org/2000/svg" xmlns:xlink="http://www.w3.org/1999/xlink" x="0px" y="0px"
	 width="308.014px" height="68px" viewBox="0 0 308.014 68" enable-background="new 0 0 308.014 68" xml:space="preserve">
<g id="Layer_1" display="none">
	<path display="inline" fill-rule="evenodd" clip-rule="evenodd" fill="#231F20" d="M23.17-25.819
		c-0.177,0.079-0.287,0.227-0.483,0.227c-0.237-0.483-0.486-0.955-0.707-1.447c-0.042-0.264-0.069-0.473-0.069-0.754
		c0-0.258-0.346-0.961-0.487-1.028c-0.237-0.265-0.218-0.337-0.218-0.717c0-0.374-0.434-0.413-0.558-0.688
		c-0.004-0.079-0.03-0.151-0.074-0.211c0-0.465-0.068-0.761,0.255-1.084l0,0c0.173-0.173,0.484-0.376,0.447-0.636
		c3.892-1.595,7.984,2.337,4.526,6.753c-0.021-0.02-0.043-0.037-0.066-0.052c0-0.835-0.375-0.79-0.968-0.515
		c0.008-0.134-0.015-0.259-0.115-0.358C24.221-26.763,23.497-26.146,23.17-25.819z"/>
	<path display="inline" fill-rule="evenodd" clip-rule="evenodd" fill="#C33934" d="M21.439-21.998
		c-4.207,2.105-8.439,1.395-11.252,0.04c-3.646-1.881-6.867-5.395-6.578-11.031l7.062-0.076c0.324,4.833,5.936,5.733,7.981,3.03
		c0.127-0.168-0.023-0.048,0.212-0.285c-0.643,2.202,2.59,7.076,4.063,7.425C22.321-22.467,22.107-22.323,21.439-21.998z"/>
	<path display="inline" fill-rule="evenodd" clip-rule="evenodd" fill="#87BE40" d="M27.495-70.618h-7.804v40.044
		c0.345,2.566,1.39,6.529,6.73,8.848c-0.794,1.165-1.26,1.354-1.26,4.107c0,2.752,1.604,7.207,7.065,7.207
		c5.462,0,7.066-4.334,7.066-7.207c0-2.874-0.625-3.387-1.66-4.64c0.77-0.522,1.445-0.97,2.199-1.515
		c-1.756-1.638-3.515-3.854-3.762-7.273c-0.152,0.184,0.114-0.228,0,0c-2.008,4.017-8.881,3.172-8.12-2.114L27.495-70.618z"/>
	<g display="inline">
		
			<circle fill-rule="evenodd" clip-rule="evenodd" fill="#231F20" stroke="#231F20" stroke-width="0.216" stroke-miterlimit="22.9256" cx="7.14" cy="-33.028" r="4.836"/>
		
			<circle fill-rule="evenodd" clip-rule="evenodd" fill="#FFFFFF" stroke="#231F20" stroke-width="0.216" stroke-miterlimit="22.9256" cx="7.14" cy="-33.027" r="3.64"/>
	</g>
	
		<circle display="inline" fill-rule="evenodd" clip-rule="evenodd" fill="#231F20" stroke="#231F20" stroke-width="0.216" stroke-miterlimit="22.9256" cx="23.593" cy="-70.618" r="4.836"/>
	
		<path display="inline" fill-rule="evenodd" clip-rule="evenodd" fill="#FFFFFF" stroke="#231F20" stroke-width="0.216" stroke-miterlimit="22.9256" d="
		M23.593-66.979c2.005,0,3.64-1.635,3.64-3.64c0-2.004-1.635-3.64-3.64-3.64s-3.64,1.635-3.64,3.64
		C19.954-68.613,21.588-66.979,23.593-66.979z"/>
	<path display="inline" fill-rule="evenodd" clip-rule="evenodd" fill="#748EC4" d="M69.304-62.513h-5.612v31.939
		c0.679,5.046,5.475,9.566,11.062,9.938v0.001h0.02c0.476,0.031,0.953,0.031,1.429,0H80.2l-0.001-3.138l0.001-0.001h-0.001
		l-0.002-4.618l-1.053-0.089c-0.933-0.073-1.899-0.081-2.812-0.063l-1.578-0.034c-1.813-0.299-3.367-1.759-3.427-4.34l-0.615-26.441
		L69.304-62.513z"/>
	<path display="inline" fill-rule="evenodd" clip-rule="evenodd" fill="#E4B645" d="M36.604-31.619v-29.913
		c2.426-18.051,34.962-14.448,34.099,2.415l-7.062,0.077c-0.561-8.343-18.145-8.059-18.778,0.094l-0.102,6.097l0.329,19.688
		c-0.871,6.042,8.231,6.281,8.646,0.095v-7.998h-4.061v-7.209h11.122v0.892v6.317v7.998C60.798-17.295,39.887-15.96,36.604-31.619z"
		/>
	<path display="inline" fill-rule="evenodd" clip-rule="evenodd" fill="#748EC4" d="M61.28-71.913
		c5.549,2.2,9.74,6.602,9.423,12.796l-7.062,0.077c-0.12-1.783-1.252-4.02-3.785-5.022L61.28-71.913z"/>
	
		<circle display="inline" fill-rule="evenodd" clip-rule="evenodd" fill="#231F20" stroke="#231F20" stroke-width="0.216" stroke-miterlimit="22.9256" cx="55.465" cy="-69.728" r="7.168"/>
	
		<path display="inline" fill-rule="evenodd" clip-rule="evenodd" fill="#FFFFFF" stroke="#231F20" stroke-width="0.216" stroke-miterlimit="22.9256" d="
		M55.465-64.265c3.01,0,5.464-2.454,5.464-5.464c0-3.009-2.454-5.463-5.464-5.463c-3.009,0-5.463,2.455-5.463,5.463
		C50.002-66.719,52.457-64.265,55.465-64.265z"/>
	
		<circle display="inline" fill-rule="evenodd" clip-rule="evenodd" fill="#231F20" stroke="#231F20" stroke-width="0.216" stroke-miterlimit="22.9256" cx="80.199" cy="-24.421" r="4.836"/>
	
		<circle display="inline" fill-rule="evenodd" clip-rule="evenodd" fill="#FFFFFF" stroke="#231F20" stroke-width="0.216" stroke-miterlimit="22.9256" cx="80.199" cy="-24.421" r="3.64"/>
	<g display="inline">
		<rect x="126.293" y="7.413" fill-rule="evenodd" clip-rule="evenodd" fill="#283372" width="172.366" height="38.502"/>
		<polygon fill-rule="evenodd" clip-rule="evenodd" fill="#FFFFFF" points="270.376,35.975 271.063,35.975 271.063,15.086 
			288.706,35.975 289.769,35.975 289.769,14.789 289.066,14.789 289.066,35.649 271.378,14.789 270.376,14.789 		"/>
		<path fill-rule="evenodd" clip-rule="evenodd" fill="#FFFFFF" d="M246.088,16.495c-1.389,0.558-2.619,1.363-3.698,2.401
			c-1.056,1.015-1.886,2.196-2.464,3.542c-0.564,1.306-0.862,2.679-0.862,4.104c0,1.483,0.264,2.925,0.843,4.296
			c0.576,1.367,1.426,2.565,2.488,3.597c1.064,1.036,2.292,1.823,3.666,2.381c1.401,0.563,2.862,0.841,4.374,0.841
			c1.516,0,2.997-0.256,4.409-0.82c1.396-0.553,2.632-1.37,3.718-2.405c1.046-1.006,1.861-2.175,2.433-3.512
			c0.572-1.322,0.857-2.709,0.857-4.15c0-1.482-0.255-2.927-0.83-4.292c-0.583-1.364-1.44-2.557-2.504-3.589
			c-1.061-1.038-2.282-1.833-3.661-2.381c-1.415-0.566-2.898-0.835-4.422-0.835C248.937,15.671,247.477,15.941,246.088,16.495
			L246.088,16.495z M240.006,26.664c0-1.387,0.256-2.737,0.779-4.02c0.521-1.28,1.281-2.413,2.271-3.374
			c0.989-0.972,2.136-1.739,3.414-2.277c1.268-0.532,2.59-0.804,3.965-0.804c1.387,0,2.735,0.262,4.011,0.796
			c1.288,0.534,2.419,1.307,3.382,2.304c0.976,0.988,1.762,2.119,2.296,3.4c0.531,1.267,0.786,2.604,0.786,3.975
			c0,1.381-0.264,2.722-0.795,3.995c-0.529,1.27-1.288,2.398-2.257,3.367c-0.972,0.985-2.108,1.761-3.39,2.285
			c-1.287,0.524-2.646,0.777-4.033,0.777c-1.389,0-2.736-0.268-4.018-0.795c-1.284-0.525-2.416-1.279-3.376-2.266
			c-0.974-0.974-1.729-2.101-2.252-3.372C240.262,29.381,240.006,28.041,240.006,26.664z"/>
		<path fill-rule="evenodd" clip-rule="evenodd" fill="#FFFFFF" d="M213.415,16.044v21.188h7.428c1.396,0,2.861-0.104,4.22-0.453
			c1.095-0.282,2.126-0.729,3.063-1.383c1.416-0.952,2.516-2.19,3.295-3.71c0.816-1.581,1.185-3.276,1.185-5.057
			c0-1.772-0.364-3.463-1.174-5.041c-0.78-1.52-1.888-2.75-3.307-3.708c-0.94-0.642-1.973-1.095-3.074-1.385
			c-1.347-0.352-2.817-0.451-4.207-0.451H213.415L213.415,16.044z M220.843,16.613c2.882,0,5.696,0.69,7.856,2.687
			c2.111,1.943,2.963,4.532,2.963,7.363c0,2.829-0.856,5.401-2.965,7.343c-2.164,1.984-4.979,2.672-7.854,2.672h-6.741V16.613
			H220.843z"/>
		<polygon fill-rule="evenodd" clip-rule="evenodd" fill="#FFFFFF" points="185.193,37.231 185.879,37.231 185.879,16.341 
			203.521,37.231 204.586,37.231 204.586,16.044 203.882,16.044 203.882,36.905 186.193,16.044 185.193,16.044 		"/>
		<path fill-rule="evenodd" clip-rule="evenodd" fill="#FFFFFF" d="M161.898,16.495c-1.388,0.558-2.619,1.363-3.699,2.401
			c-1.057,1.015-1.884,2.196-2.464,3.542c-0.563,1.306-0.862,2.679-0.862,4.104c0,1.483,0.265,2.925,0.844,4.296
			c0.575,1.367,1.425,2.565,2.488,3.597c1.064,1.036,2.294,1.823,3.666,2.381c1.402,0.563,2.863,0.841,4.373,0.841
			c1.516,0,2.998-0.256,4.409-0.82c1.396-0.553,2.633-1.37,3.718-2.405c1.048-1.006,1.861-2.175,2.434-3.512
			c0.572-1.322,0.857-2.709,0.857-4.15c0-1.482-0.256-2.927-0.83-4.292c-0.583-1.364-1.442-2.557-2.505-3.589
			c-1.059-1.038-2.283-1.833-3.66-2.381c-1.415-0.566-2.898-0.835-4.423-0.835C164.747,15.671,163.288,15.941,161.898,16.495
			L161.898,16.495z M155.814,26.664c0-1.387,0.258-2.737,0.781-4.02c0.521-1.28,1.282-2.413,2.27-3.374
			c0.991-0.972,2.136-1.739,3.415-2.277c1.268-0.532,2.59-0.804,3.964-0.804c1.387,0,2.734,0.262,4.014,0.796
			c1.286,0.534,2.415,1.307,3.38,2.304c0.974,0.988,1.761,2.119,2.295,3.4c0.531,1.267,0.786,2.604,0.786,3.975
			c0,1.381-0.263,2.722-0.797,3.995c-0.527,1.27-1.285,2.398-2.254,3.367c-0.974,0.985-2.109,1.761-3.391,2.285
			c-1.286,0.524-2.646,0.777-4.033,0.777c-1.389,0-2.736-0.268-4.019-0.795c-1.282-0.525-2.413-1.279-3.375-2.266
			c-0.973-0.974-1.73-2.101-2.253-3.372C156.072,29.381,155.814,28.041,155.814,26.664z"/>
		<polygon fill-rule="evenodd" clip-rule="evenodd" fill="#FFFFFF" points="138.839,37.231 150.892,37.231 150.892,36.854 
			139.524,36.854 139.524,16.044 138.839,16.044 		"/>
		<rect x="127.64" y="8.76" fill-rule="evenodd" clip-rule="evenodd" fill="#FFFFFF" width="169.673" height="35.807"/>
		<rect x="128.986" y="9.924" fill-rule="evenodd" clip-rule="evenodd" fill="#283372" width="166.98" height="33.115"/>
		<polygon fill-rule="evenodd" clip-rule="evenodd" fill="#FFFFFF" points="137.484,38.578 137.484,14.707 140.875,14.707 
			140.875,35.502 152.234,35.502 152.234,38.578 		"/>
		<path fill-rule="evenodd" clip-rule="evenodd" fill="#FFFFFF" d="M157.152,26.665c0,1.218,0.227,2.382,0.683,3.483
			c0.453,1.101,1.113,2.081,1.963,2.935c0.832,0.852,1.806,1.51,2.931,1.97c1.117,0.46,2.288,0.693,3.507,0.693
			c1.246,0,2.423-0.228,3.522-0.676c1.097-0.447,2.08-1.112,2.943-1.987c0.851-0.854,1.508-1.834,1.969-2.935
			c0.46-1.102,0.693-2.266,0.693-3.483c0-1.217-0.228-2.365-0.683-3.454c-0.454-1.084-1.129-2.08-2.015-2.977
			c-0.851-0.88-1.829-1.543-2.937-2.003c-1.101-0.46-2.265-0.694-3.494-0.694c-1.188,0-2.33,0.233-3.443,0.699
			c-1.106,0.466-2.108,1.13-2.994,1.999c-0.85,0.827-1.51,1.8-1.963,2.918C157.379,24.265,157.152,25.436,157.152,26.665
			L157.152,26.665z M153.518,26.537c0-1.591,0.327-3.141,0.974-4.637c0.646-1.503,1.571-2.832,2.768-3.979
			c1.217-1.171,2.591-2.062,4.13-2.679c1.531-0.612,3.15-0.92,4.847-0.92c1.723,0,3.367,0.308,4.923,0.932
			c1.549,0.618,2.917,1.509,4.1,2.667c1.241,1.206,2.173,2.551,2.803,4.025c0.623,1.48,0.937,3.088,0.937,4.817
			c0,1.626-0.319,3.188-0.967,4.684c-0.641,1.497-1.556,2.813-2.737,3.95c-1.241,1.182-2.622,2.08-4.153,2.686
			c-1.534,0.61-3.17,0.913-4.904,0.913c-1.696,0-3.321-0.314-4.876-0.938c-1.55-0.63-2.92-1.515-4.101-2.661
			c-1.23-1.195-2.162-2.546-2.791-4.043C153.834,29.851,153.518,28.244,153.518,26.537z"/>
		<polygon fill-rule="evenodd" clip-rule="evenodd" fill="#FFFFFF" points="183.836,38.578 183.836,14.707 186.806,14.707 
			202.533,33.235 202.533,14.707 205.924,14.707 205.924,38.578 202.889,38.578 187.225,20.03 187.225,38.578 		"/>
		<path fill-rule="evenodd" clip-rule="evenodd" fill="#FFFFFF" d="M220.834,17.957h-5.389v17.371h5.389
			c2.946,0,5.261-0.775,6.943-2.319c1.684-1.549,2.521-3.663,2.521-6.349c0-2.697-0.838-4.824-2.521-6.373
			C226.095,18.731,223.78,17.957,220.834,17.957L220.834,17.957z M220.834,14.707c1.766,0,3.279,0.163,4.55,0.494
			c1.263,0.333,2.428,0.851,3.483,1.567c1.619,1.095,2.866,2.499,3.746,4.206c0.879,1.712,1.32,3.6,1.32,5.656
			c0,2.062-0.441,3.955-1.327,5.679c-0.892,1.718-2.132,3.122-3.739,4.206c-1.031,0.716-2.191,1.234-3.478,1.567
			c-1.288,0.332-2.802,0.495-4.556,0.495h-8.778V14.707H220.834z"/>
		<path fill-rule="evenodd" clip-rule="evenodd" fill="#FFFFFF" d="M241.335,26.665c0,1.218,0.228,2.382,0.683,3.483
			c0.454,1.101,1.112,2.081,1.963,2.935c0.833,0.852,1.807,1.51,2.93,1.97c1.117,0.46,2.289,0.693,3.507,0.693
			c1.248,0,2.423-0.228,3.524-0.676c1.095-0.447,2.08-1.112,2.941-1.987c0.851-0.854,1.51-1.834,1.97-2.935
			c0.459-1.102,0.691-2.266,0.691-3.483c0-1.217-0.227-2.365-0.681-3.454c-0.454-1.084-1.13-2.08-2.015-2.977
			c-0.852-0.88-1.83-1.543-2.937-2.003c-1.102-0.46-2.267-0.694-3.495-0.694c-1.188,0-2.33,0.233-3.443,0.699
			c-1.105,0.466-2.108,1.13-2.993,1.999c-0.851,0.827-1.509,1.8-1.963,2.918C241.563,24.265,241.335,25.436,241.335,26.665
			L241.335,26.665z M237.701,26.537c0-1.591,0.325-3.141,0.973-4.637c0.646-1.503,1.573-2.832,2.766-3.979
			c1.219-1.171,2.594-2.062,4.132-2.679c1.531-0.612,3.15-0.92,4.846-0.92c1.725,0,3.367,0.308,4.922,0.932
			c1.55,0.618,2.919,1.509,4.101,2.667c1.241,1.206,2.174,2.551,2.802,4.025c0.624,1.48,0.939,3.088,0.939,4.817
			c0,1.626-0.321,3.188-0.969,4.684c-0.64,1.497-1.555,2.813-2.737,3.95c-1.241,1.182-2.62,2.08-4.153,2.686
			c-1.531,0.61-3.169,0.913-4.904,0.913c-1.695,0-3.32-0.314-4.876-0.938c-1.55-0.63-2.917-1.515-4.102-2.661
			c-1.229-1.195-2.161-2.546-2.79-4.043C238.015,29.851,237.701,28.244,237.701,26.537z"/>
		<polygon fill-rule="evenodd" clip-rule="evenodd" fill="#FFFFFF" points="269.012,37.322 269.012,13.451 271.982,13.451 
			287.712,31.98 287.712,13.451 291.101,13.451 291.101,37.322 288.066,37.322 272.403,18.774 272.403,37.322 		"/>
		<rect x="128.88" y="49.09" fill-rule="evenodd" clip-rule="evenodd" fill="none" width="172.318" height="9.727"/>
		<text transform="matrix(1 0 0 1 128.8804 58.1426)" fill="#283372" font-family="'OpenSans-Bold'" font-size="11.911">Joomla! User Group London</text>
	</g>
</g>
<g id="Layer_2">
	<circle display="none" fill="#748EC4" cx="14.022" cy="127.334" r="3.69"/>
	<rect x="10.225" y="39.774" fill="#C33934" width="6.712" height="10.79"/>
	<rect x="23.649" y="7.5" fill="#C33934" width="6.712" height="43.064"/>
	<rect x="63.827" y="17.474" fill="#E4B645" width="6.712" height="33.091"/>
	<rect x="90.674" y="7.538" fill="#748EC4" width="6.712" height="43.026"/>
	<path fill="#748EC4" d="M10.225,50.564"/>
	<path fill="#C33934" d="M10.225,50.564h6.712c0,0,0.096,3.169,3.341,3.342v6.726C20.278,60.632,10.225,60.632,10.225,50.564z"/>
	<path fill="#C33934" d="M30.332,50.564H23.62c0,0-0.095,3.169-3.341,3.342v6.726C20.278,60.632,30.332,60.632,30.332,50.564z"/>
	<path fill="#E4B645" d="M77.22,50.564c0,0-0.095,3.169-3.341,3.342c-3.246-0.173-3.341-3.342-3.341-3.342h-6.712
		c0,10.067,10.053,10.067,10.053,10.067s10.053,0,10.053-10.067H77.22z"/>
	<rect x="77.25" y="34.174" fill="#E4B645" width="6.712" height="16.391"/>
	<rect x="74.266" y="34.174" fill="#E4B645" width="12.681" height="6.711"/>
	<path fill="#748EC4" d="M90.674,50.564h6.712c0,0,0.095,3.169,3.341,3.342v6.726C100.728,60.632,90.674,60.632,90.674,50.564z"/>
	<rect x="100.728" y="53.92" fill="#748EC4" width="12.681" height="6.712"/>
	<rect x="17.308" y="7.5" fill="#C33934" width="12.682" height="6.712"/>
	<rect x="37.053" y="7.647" fill="#87BE40" width="6.712" height="43.158"/>
	<rect x="50.477" y="7.647" fill="#87BE40" width="6.712" height="43.158"/>
	<path fill="#87BE40" d="M50.462,50.563c0,0-0.095,3.169-3.341,3.342c-3.246-0.173-3.341-3.342-3.341-3.342h-6.712
		c0,10.067,10.053,10.067,10.053,10.067s10.053,0,10.053-10.067H50.462z"/>
	<g>
		
			<circle fill-rule="evenodd" clip-rule="evenodd" fill="#231F20" stroke="#231F20" stroke-width="0.216" stroke-miterlimit="22.9256" cx="27.096" cy="43.13" r="5.356"/>
		
			<circle fill-rule="evenodd" clip-rule="evenodd" fill="#FFFFFF" stroke="#231F20" stroke-width="0.216" stroke-miterlimit="22.9256" cx="27.096" cy="43.131" r="4.031"/>
	</g>
	<g>
		
			<circle fill-rule="evenodd" clip-rule="evenodd" fill="#231F20" stroke="#231F20" stroke-width="0.216" stroke-miterlimit="22.9256" cx="40.5" cy="43.13" r="5.356"/>
		
			<circle fill-rule="evenodd" clip-rule="evenodd" fill="#FFFFFF" stroke="#231F20" stroke-width="0.216" stroke-miterlimit="22.9256" cx="40.5" cy="43.131" r="4.031"/>
	</g>
	<rect x="30.082" y="42.483" fill-rule="evenodd" clip-rule="evenodd" fill="#FFFFFF" width="7.555" height="1.527"/>
	<rect x="31.016" y="40.955" fill-rule="evenodd" clip-rule="evenodd" width="5.623" height="1.528"/>
	<rect x="30.846" y="44.011" fill-rule="evenodd" clip-rule="evenodd" width="5.623" height="1.528"/>
	<g display="none">
		
			<circle display="inline" fill-rule="evenodd" clip-rule="evenodd" fill="#231F20" stroke="#231F20" stroke-width="0.216" stroke-miterlimit="22.9256" cx="80.804" cy="87.111" r="5.916"/>
		
			<circle display="inline" fill-rule="evenodd" clip-rule="evenodd" fill="#FFFFFF" stroke="#231F20" stroke-width="0.216" stroke-miterlimit="22.9256" cx="80.804" cy="87.111" r="4.451"/>
	</g>
	<g display="none">
		
			<circle display="inline" fill-rule="evenodd" clip-rule="evenodd" fill="#231F20" stroke="#231F20" stroke-width="0.216" stroke-miterlimit="22.9256" cx="95.479" cy="73.17" r="5.916"/>
		
			<circle display="inline" fill-rule="evenodd" clip-rule="evenodd" fill="#FFFFFF" stroke="#231F20" stroke-width="0.216" stroke-miterlimit="22.9256" cx="95.479" cy="73.171" r="4.452"/>
	</g>
	<g display="none">
		
			<rect x="81.219" y="79.177" transform="matrix(0.7071 -0.7071 0.7071 0.7071 -30.7863 85.7136)" display="inline" fill-rule="evenodd" clip-rule="evenodd" fill="#FFFFFF" width="13.714" height="1.688"/>
		
			<rect x="81.738" y="78.026" transform="matrix(0.7071 -0.7071 0.7071 0.7071 -30.3337 84.5063)" display="inline" fill-rule="evenodd" clip-rule="evenodd" width="10.207" height="1.687"/>
		
			<rect x="83.906" y="80.628" transform="matrix(0.707 -0.7072 0.7072 0.707 -31.5384 86.8148)" display="inline" fill-rule="evenodd" clip-rule="evenodd" width="10.209" height="1.688"/>
	</g>
	<rect x="77.22" y="17.474" fill="#E4B645" width="6.712" height="7.514"/>
	<g>
		<g>
			
				<circle fill-rule="evenodd" clip-rule="evenodd" fill="#231F20" stroke="#231F20" stroke-width="0.216" stroke-miterlimit="22.9256" cx="80.886" cy="26.34" r="5.356"/>
			
				<circle fill-rule="evenodd" clip-rule="evenodd" fill="#FFFFFF" stroke="#231F20" stroke-width="0.216" stroke-miterlimit="22.9256" cx="80.886" cy="26.341" r="4.031"/>
		</g>
		<g>
			
				<circle fill-rule="evenodd" clip-rule="evenodd" fill="#231F20" stroke="#231F20" stroke-width="0.216" stroke-miterlimit="22.9256" cx="94.29" cy="26.34" r="5.356"/>
			
				<circle fill-rule="evenodd" clip-rule="evenodd" fill="#FFFFFF" stroke="#231F20" stroke-width="0.216" stroke-miterlimit="22.9256" cx="94.29" cy="26.341" r="4.031"/>
		</g>
		<polygon fill-rule="evenodd" clip-rule="evenodd" points="84.806,24.164 84.806,27.22 84.637,27.22 84.637,28.748 84.806,28.748 
			90.259,28.748 90.429,28.748 90.429,24.164 		"/>
		<rect x="83.957" y="25.692" fill-rule="evenodd" clip-rule="evenodd" fill="#FFFFFF" width="7.263" height="1.528"/>
	</g>
	<rect x="50.495" y="7.5" fill="#87BE40" width="9.679" height="6.711"/>
	<rect x="34.069" y="7.5" fill="#87BE40" width="9.697" height="6.711"/>
	<path fill="#E4B645" d="M70.537,17.567c0,0,0.096-3.169,3.341-3.341c3.246,0.172,3.341,3.341,3.341,3.341h6.712
		C83.932,7.5,73.878,7.5,73.878,7.5s-10.053,0-10.053,10.067H70.537z"/>
	<rect x="7.24" y="39.774" fill="#C33934" width="12.682" height="6.712"/>
	<rect x="87.688" y="7.5" fill="#748EC4" width="12.682" height="6.711"/>
	<rect x="120.822" y="7.462" fill-rule="evenodd" clip-rule="evenodd" fill="#283372" width="172.366" height="38.502"/>
	<polygon fill-rule="evenodd" clip-rule="evenodd" fill="#FFFFFF" points="264.904,36.023 265.592,36.023 265.592,15.135 
		283.234,36.023 284.297,36.023 284.297,14.837 283.595,14.837 283.595,35.698 265.906,14.837 264.904,14.837 	"/>
	<path fill-rule="evenodd" clip-rule="evenodd" fill="#FFFFFF" d="M240.616,16.543c-1.389,0.558-2.619,1.363-3.698,2.401
		c-1.056,1.015-1.886,2.196-2.464,3.542c-0.564,1.306-0.862,2.679-0.862,4.104c0,1.483,0.264,2.925,0.843,4.296
		c0.576,1.367,1.426,2.565,2.488,3.597c1.064,1.036,2.292,1.823,3.666,2.381c1.401,0.563,2.862,0.841,4.374,0.841
		c1.516,0,2.997-0.256,4.409-0.82c1.396-0.553,2.632-1.37,3.718-2.405c1.046-1.006,1.861-2.175,2.433-3.512
		c0.572-1.322,0.857-2.709,0.857-4.15c0-1.482-0.255-2.927-0.83-4.292c-0.583-1.364-1.44-2.557-2.504-3.589
		c-1.061-1.038-2.282-1.833-3.661-2.381c-1.415-0.566-2.898-0.835-4.422-0.835C243.465,15.72,242.005,15.99,240.616,16.543
		L240.616,16.543z M234.534,26.712c0-1.387,0.256-2.737,0.779-4.02c0.521-1.28,1.281-2.413,2.271-3.374
		c0.989-0.972,2.136-1.739,3.414-2.277c1.268-0.532,2.59-0.804,3.965-0.804c1.387,0,2.735,0.262,4.011,0.796
		c1.288,0.534,2.419,1.307,3.382,2.304c0.976,0.988,1.762,2.119,2.296,3.4c0.531,1.267,0.786,2.604,0.786,3.975
		c0,1.381-0.264,2.722-0.795,3.995c-0.529,1.27-1.288,2.398-2.257,3.367c-0.972,0.985-2.108,1.761-3.39,2.285
		c-1.287,0.524-2.646,0.777-4.033,0.777c-1.389,0-2.736-0.268-4.018-0.795c-1.284-0.525-2.416-1.279-3.376-2.266
		c-0.974-0.974-1.729-2.101-2.252-3.372C234.79,29.43,234.534,28.09,234.534,26.712z"/>
	<path fill-rule="evenodd" clip-rule="evenodd" fill="#FFFFFF" d="M207.943,16.093V37.28h7.428c1.396,0,2.861-0.104,4.22-0.453
		c1.095-0.282,2.126-0.729,3.063-1.383c1.416-0.952,2.516-2.19,3.295-3.71c0.816-1.581,1.185-3.276,1.185-5.057
		c0-1.772-0.364-3.463-1.174-5.041c-0.78-1.52-1.888-2.75-3.307-3.708c-0.94-0.642-1.973-1.095-3.074-1.385
		c-1.347-0.352-2.817-0.451-4.207-0.451H207.943L207.943,16.093z M215.371,16.662c2.882,0,5.696,0.69,7.856,2.687
		c2.111,1.943,2.963,4.532,2.963,7.363c0,2.829-0.856,5.401-2.965,7.343c-2.164,1.984-4.979,2.672-7.854,2.672h-6.741V16.662
		H215.371z"/>
	<polygon fill-rule="evenodd" clip-rule="evenodd" fill="#FFFFFF" points="179.722,37.28 180.407,37.28 180.407,16.39 198.05,37.28 
		199.114,37.28 199.114,16.093 198.41,16.093 198.41,36.954 180.722,16.093 179.722,16.093 	"/>
	<path fill-rule="evenodd" clip-rule="evenodd" fill="#FFFFFF" d="M156.427,16.543c-1.388,0.558-2.619,1.363-3.699,2.401
		c-1.057,1.015-1.884,2.196-2.464,3.542c-0.563,1.306-0.862,2.679-0.862,4.104c0,1.483,0.265,2.925,0.844,4.296
		c0.575,1.367,1.425,2.565,2.488,3.597c1.064,1.036,2.294,1.823,3.666,2.381c1.402,0.563,2.863,0.841,4.373,0.841
		c1.516,0,2.998-0.256,4.409-0.82c1.396-0.553,2.633-1.37,3.718-2.405c1.048-1.006,1.861-2.175,2.434-3.512
		c0.572-1.322,0.857-2.709,0.857-4.15c0-1.482-0.256-2.927-0.83-4.292c-0.583-1.364-1.442-2.557-2.505-3.589
		c-1.059-1.038-2.283-1.833-3.66-2.381c-1.415-0.566-2.898-0.835-4.423-0.835C159.275,15.72,157.816,15.99,156.427,16.543
		L156.427,16.543z M150.343,26.712c0-1.387,0.258-2.737,0.781-4.02c0.521-1.28,1.282-2.413,2.27-3.374
		c0.991-0.972,2.136-1.739,3.415-2.277c1.268-0.532,2.59-0.804,3.964-0.804c1.387,0,2.734,0.262,4.014,0.796
		c1.286,0.534,2.415,1.307,3.38,2.304c0.974,0.988,1.761,2.119,2.295,3.4c0.531,1.267,0.786,2.604,0.786,3.975
		c0,1.381-0.263,2.722-0.797,3.995c-0.527,1.27-1.285,2.398-2.254,3.367c-0.974,0.985-2.109,1.761-3.391,2.285
		c-1.286,0.524-2.646,0.777-4.033,0.777c-1.389,0-2.736-0.268-4.019-0.795c-1.282-0.525-2.413-1.279-3.375-2.266
		c-0.973-0.974-1.73-2.101-2.253-3.372C150.601,29.43,150.343,28.09,150.343,26.712z"/>
	<polygon fill-rule="evenodd" clip-rule="evenodd" fill="#FFFFFF" points="133.367,37.28 145.42,37.28 145.42,36.903 
		134.053,36.903 134.053,16.093 133.367,16.093 	"/>
	<rect x="122.168" y="8.809" fill-rule="evenodd" clip-rule="evenodd" fill="#FFFFFF" width="169.673" height="35.807"/>
	<rect x="123.515" y="9.973" fill-rule="evenodd" clip-rule="evenodd" fill="#283372" width="166.98" height="33.115"/>
	<polygon fill-rule="evenodd" clip-rule="evenodd" fill="#FFFFFF" points="132.013,38.627 132.013,14.755 135.403,14.755 
		135.403,35.551 146.763,35.551 146.763,38.627 	"/>
	<path fill-rule="evenodd" clip-rule="evenodd" fill="#FFFFFF" d="M151.681,26.713c0,1.218,0.227,2.382,0.683,3.483
		c0.453,1.101,1.113,2.081,1.963,2.935c0.832,0.852,1.806,1.51,2.931,1.97c1.117,0.46,2.288,0.693,3.507,0.693
		c1.246,0,2.423-0.228,3.522-0.676c1.097-0.447,2.08-1.112,2.943-1.987c0.851-0.854,1.508-1.834,1.969-2.935
		c0.46-1.102,0.693-2.266,0.693-3.483c0-1.217-0.228-2.365-0.683-3.454c-0.454-1.084-1.129-2.08-2.015-2.977
		c-0.851-0.88-1.829-1.543-2.937-2.003c-1.101-0.46-2.265-0.694-3.494-0.694c-1.188,0-2.33,0.233-3.443,0.699
		c-1.106,0.466-2.108,1.13-2.994,1.999c-0.85,0.827-1.51,1.8-1.963,2.918C151.907,24.313,151.681,25.484,151.681,26.713
		L151.681,26.713z M148.046,26.586c0-1.591,0.327-3.141,0.974-4.637c0.646-1.503,1.571-2.832,2.768-3.979
		c1.217-1.171,2.591-2.062,4.13-2.679c1.531-0.612,3.15-0.92,4.847-0.92c1.723,0,3.367,0.308,4.923,0.932
		c1.549,0.618,2.917,1.509,4.1,2.667c1.241,1.206,2.173,2.551,2.803,4.025c0.623,1.48,0.937,3.088,0.937,4.817
		c0,1.626-0.319,3.188-0.967,4.684c-0.641,1.496-1.556,2.813-2.737,3.95c-1.241,1.182-2.622,2.08-4.153,2.686
		c-1.534,0.61-3.17,0.913-4.904,0.913c-1.696,0-3.321-0.314-4.876-0.938c-1.55-0.63-2.92-1.515-4.101-2.661
		c-1.23-1.195-2.162-2.546-2.791-4.043C148.362,29.9,148.046,28.292,148.046,26.586z"/>
	<polygon fill-rule="evenodd" clip-rule="evenodd" fill="#FFFFFF" points="178.364,38.627 178.364,14.755 181.334,14.755 
		197.062,33.284 197.062,14.755 200.452,14.755 200.452,38.627 197.417,38.627 181.753,20.079 181.753,38.627 	"/>
	<path fill-rule="evenodd" clip-rule="evenodd" fill="#FFFFFF" d="M215.362,18.005h-5.389v17.371h5.389
		c2.946,0,5.261-0.775,6.943-2.319c1.684-1.549,2.521-3.663,2.521-6.349c0-2.697-0.838-4.824-2.521-6.373
		C220.623,18.78,218.309,18.005,215.362,18.005L215.362,18.005z M215.362,14.755c1.766,0,3.279,0.163,4.55,0.494
		c1.263,0.333,2.428,0.851,3.483,1.567c1.619,1.095,2.866,2.499,3.746,4.206c0.879,1.712,1.32,3.6,1.32,5.656
		c0,2.062-0.441,3.955-1.327,5.679c-0.892,1.718-2.132,3.122-3.739,4.206c-1.031,0.716-2.191,1.234-3.478,1.567
		c-1.288,0.332-2.802,0.495-4.556,0.495h-8.778V14.755H215.362z"/>
	<path fill-rule="evenodd" clip-rule="evenodd" fill="#FFFFFF" d="M235.863,26.713c0,1.218,0.228,2.382,0.683,3.483
		c0.454,1.101,1.112,2.081,1.963,2.935c0.833,0.852,1.807,1.51,2.93,1.97c1.117,0.46,2.289,0.693,3.507,0.693
		c1.248,0,2.423-0.228,3.524-0.676c1.095-0.447,2.08-1.112,2.941-1.987c0.851-0.854,1.51-1.834,1.97-2.935
		c0.459-1.102,0.691-2.266,0.691-3.483c0-1.217-0.227-2.365-0.681-3.454c-0.454-1.084-1.13-2.08-2.015-2.977
		c-0.852-0.88-1.83-1.543-2.937-2.003c-1.102-0.46-2.267-0.694-3.495-0.694c-1.188,0-2.33,0.233-3.443,0.699
		c-1.105,0.466-2.108,1.13-2.993,1.999c-0.851,0.827-1.509,1.8-1.963,2.918C236.091,24.313,235.863,25.484,235.863,26.713
		L235.863,26.713z M232.229,26.586c0-1.591,0.325-3.141,0.973-4.637c0.646-1.503,1.573-2.832,2.766-3.979
		c1.219-1.171,2.594-2.062,4.132-2.679c1.531-0.612,3.15-0.92,4.846-0.92c1.725,0,3.367,0.308,4.922,0.932
		c1.55,0.618,2.919,1.509,4.101,2.667c1.241,1.206,2.174,2.551,2.802,4.025c0.624,1.48,0.939,3.088,0.939,4.817
		c0,1.626-0.321,3.188-0.969,4.684c-0.64,1.496-1.555,2.813-2.737,3.95c-1.241,1.182-2.62,2.08-4.153,2.686
		c-1.531,0.61-3.169,0.913-4.904,0.913c-1.695,0-3.32-0.314-4.876-0.938c-1.55-0.63-2.917-1.515-4.102-2.661
		c-1.229-1.195-2.161-2.546-2.79-4.043C232.543,29.9,232.229,28.292,232.229,26.586z"/>
	<polygon fill-rule="evenodd" clip-rule="evenodd" fill="#FFFFFF" points="263.54,37.371 263.54,13.5 266.511,13.5 282.24,32.029 
		282.24,13.5 285.629,13.5 285.629,37.371 282.595,37.371 266.932,18.823 266.932,37.371 	"/>
	<g>
		<path fill="#C33934" d="M129.25,51.854v1.07l-0.948,0.183v4.942c0,0.854-0.279,1.532-0.836,2.033s-1.261,0.751-2.112,0.751
			c-0.924,0-1.656-0.226-2.195-0.675c-0.539-0.45-0.798-1.112-0.778-1.988l0.012-0.036h1.726c0,0.466,0.112,0.806,0.334,1.019
			c0.223,0.212,0.523,0.318,0.9,0.318c0.328,0,0.607-0.126,0.836-0.38c0.229-0.253,0.343-0.601,0.343-1.042v-4.942l-0.948-0.183
			v-1.07h2.717H129.25z"/>
		<path fill="#C33934" d="M130.083,57.356c0-0.98,0.275-1.784,0.824-2.41c0.549-0.626,1.308-0.939,2.277-0.939
			c0.973,0,1.733,0.313,2.283,0.937c0.549,0.624,0.824,1.429,0.824,2.413v0.128c0,0.988-0.275,1.794-0.824,2.416
			c-0.549,0.622-1.306,0.934-2.271,0.934c-0.977,0-1.74-0.312-2.289-0.934c-0.549-0.622-0.824-1.428-0.824-2.416V57.356z
			 M131.859,57.484c0,0.6,0.105,1.081,0.316,1.443c0.211,0.363,0.551,0.544,1.021,0.544c0.458,0,0.793-0.182,1.006-0.547
			c0.213-0.364,0.319-0.845,0.319-1.44v-0.128c0-0.584-0.107-1.06-0.322-1.429c-0.215-0.368-0.553-0.553-1.015-0.553
			s-0.798,0.185-1.009,0.553c-0.211,0.369-0.316,0.845-0.316,1.429V57.484z"/>
		<path fill="#C33934" d="M137.349,57.356c0-0.98,0.275-1.784,0.824-2.41c0.549-0.626,1.309-0.939,2.276-0.939
			c0.973,0,1.734,0.313,2.283,0.937s0.823,1.429,0.823,2.413v0.128c0,0.988-0.274,1.794-0.823,2.416s-1.306,0.934-2.271,0.934
			c-0.977,0-1.74-0.312-2.289-0.934c-0.549-0.622-0.824-1.428-0.824-2.416V57.356z M139.125,57.484c0,0.6,0.105,1.081,0.316,1.443
			c0.211,0.363,0.551,0.544,1.021,0.544c0.458,0,0.793-0.182,1.006-0.547c0.213-0.364,0.319-0.845,0.319-1.44v-0.128
			c0-0.584-0.107-1.06-0.322-1.429c-0.215-0.368-0.553-0.553-1.016-0.553c-0.462,0-0.798,0.185-1.009,0.553
			c-0.211,0.369-0.316,0.845-0.316,1.429V57.484z"/>
		<path fill="#C33934" d="M144.408,55.198v-1.069h2.596l0.072,0.869c0.211-0.316,0.476-0.561,0.794-0.732
			c0.317-0.173,0.686-0.259,1.104-0.259c0.421,0,0.781,0.094,1.082,0.279c0.3,0.187,0.526,0.469,0.681,0.846
			c0.202-0.353,0.466-0.629,0.79-0.827s0.705-0.298,1.143-0.298c0.648,0,1.16,0.224,1.535,0.672s0.563,1.13,0.563,2.046v2.735
			l0.857,0.183v1.063h-3.398v-1.063l0.766-0.183v-2.742c0-0.498-0.081-0.845-0.243-1.039s-0.403-0.292-0.724-0.292
			c-0.251,0-0.469,0.056-0.653,0.167c-0.185,0.112-0.331,0.267-0.44,0.466c0,0.076,0.002,0.143,0.006,0.197s0.006,0.11,0.006,0.167
			v3.076l0.718,0.183v1.063h-3.204v-1.063l0.718-0.183v-2.742c0-0.486-0.081-0.829-0.243-1.03c-0.162-0.2-0.405-0.301-0.729-0.301
			c-0.239,0-0.449,0.046-0.629,0.137c-0.181,0.092-0.33,0.22-0.447,0.386v3.551l0.766,0.183v1.063h-3.392v-1.063l0.857-0.183v-4.079
			L144.408,55.198z"/>
		<path fill="#C33934" d="M156.293,52.293v-1.07h2.724v8.237l0.857,0.183v1.063h-3.489v-1.063l0.856-0.183v-6.985L156.293,52.293z"
			/>
		<path fill="#C33934" d="M164.926,60.706c-0.049-0.109-0.091-0.222-0.128-0.337c-0.036-0.116-0.064-0.232-0.085-0.35
			c-0.211,0.243-0.467,0.439-0.769,0.589c-0.302,0.15-0.647,0.226-1.037,0.226c-0.644,0-1.155-0.176-1.534-0.526
			s-0.568-0.827-0.568-1.432c0-0.615,0.247-1.092,0.741-1.429c0.494-0.336,1.22-0.504,2.177-0.504h0.905v-0.645
			c0-0.316-0.091-0.562-0.273-0.735c-0.183-0.175-0.452-0.262-0.809-0.262c-0.202,0-0.383,0.023-0.541,0.07
			c-0.158,0.046-0.285,0.102-0.383,0.167l-0.115,0.705h-1.338l0.006-1.459c0.324-0.219,0.696-0.403,1.116-0.554
			c0.419-0.149,0.876-0.225,1.37-0.225c0.815,0,1.477,0.2,1.985,0.599c0.509,0.399,0.763,0.968,0.763,1.705v2.718
			c0,0.102,0.001,0.196,0.003,0.285c0.002,0.09,0.01,0.175,0.021,0.256l0.541,0.073v1.063H164.926z M163.388,59.521
			c0.268,0,0.511-0.058,0.729-0.173c0.219-0.116,0.39-0.261,0.511-0.435V57.91h-0.905c-0.377,0-0.663,0.088-0.857,0.264
			c-0.194,0.177-0.292,0.389-0.292,0.636c0,0.223,0.072,0.397,0.216,0.522C162.933,59.458,163.133,59.521,163.388,59.521z"/>
		<path fill="#C33934" d="M169.978,57.654h-1.774v-5.8h1.774V57.654z M169.978,60.706h-1.774v-1.557h1.774V60.706z"/>
		<path fill="#87BE40" d="M178.089,51.854v1.07l-0.948,0.183v4.62c0,0.583,0.157,1.021,0.472,1.31
			c0.313,0.29,0.744,0.435,1.292,0.435c0.555,0,0.99-0.144,1.307-0.432c0.316-0.287,0.475-0.725,0.475-1.313v-4.62l-0.942-0.183
			v-1.07h3.665v1.07l-0.948,0.183v4.62c0,0.993-0.327,1.759-0.981,2.298s-1.513,0.809-2.574,0.809c-1.059,0-1.912-0.27-2.563-0.809
			s-0.976-1.305-0.976-2.298v-4.62l-0.942-0.183v-1.07h0.942h1.774H178.089z"/>
		<path fill="#87BE40" d="M189.628,56.39h-1.191l-0.188-0.82c-0.122-0.098-0.274-0.179-0.459-0.243s-0.389-0.098-0.611-0.098
			c-0.312,0-0.56,0.07-0.741,0.21c-0.183,0.14-0.273,0.315-0.273,0.526c0,0.198,0.087,0.363,0.261,0.495
			c0.175,0.132,0.523,0.248,1.046,0.35c0.814,0.162,1.418,0.4,1.812,0.714c0.394,0.314,0.59,0.747,0.59,1.298
			c0,0.592-0.255,1.075-0.763,1.45c-0.509,0.375-1.179,0.563-2.01,0.563c-0.507,0-0.972-0.074-1.395-0.222
			c-0.424-0.148-0.8-0.36-1.128-0.636l-0.019-1.478h1.24l0.243,0.857c0.105,0.089,0.249,0.155,0.432,0.197
			c0.183,0.043,0.373,0.064,0.571,0.064c0.361,0,0.636-0.065,0.824-0.194c0.188-0.13,0.282-0.307,0.282-0.529
			c0-0.194-0.095-0.362-0.285-0.505c-0.191-0.142-0.541-0.268-1.052-0.377c-0.774-0.158-1.359-0.392-1.754-0.702
			c-0.396-0.31-0.593-0.732-0.593-1.268c0-0.551,0.227-1.026,0.681-1.425c0.454-0.399,1.101-0.599,1.939-0.599
			c0.511,0,0.994,0.068,1.449,0.206c0.456,0.138,0.814,0.314,1.073,0.529L189.628,56.39z"/>
		<path fill="#87BE40" d="M194.103,60.834c-0.948,0-1.706-0.305-2.273-0.912c-0.567-0.608-0.852-1.38-0.852-2.316v-0.243
			c0-0.977,0.269-1.781,0.806-2.413s1.257-0.946,2.161-0.942c0.888,0,1.576,0.268,2.066,0.803s0.736,1.258,0.736,2.17v0.967h-3.928
			l-0.012,0.036c0.032,0.434,0.177,0.79,0.435,1.07c0.257,0.279,0.606,0.419,1.049,0.419c0.393,0,0.719-0.039,0.979-0.118
			c0.259-0.079,0.543-0.204,0.851-0.374l0.48,1.095c-0.271,0.215-0.623,0.395-1.055,0.541
			C195.114,60.761,194.633,60.834,194.103,60.834z M193.944,55.375c-0.328,0-0.588,0.125-0.778,0.377
			c-0.19,0.251-0.308,0.581-0.353,0.99l0.019,0.03h2.176v-0.157c0-0.377-0.088-0.679-0.265-0.903
			C194.567,55.487,194.301,55.375,193.944,55.375z"/>
		<path fill="#87BE40" d="M198.005,59.643l0.852-0.183v-4.079l-0.942-0.183v-1.069h2.596l0.079,0.96
			c0.153-0.341,0.353-0.605,0.596-0.796s0.524-0.286,0.845-0.286c0.093,0,0.191,0.007,0.295,0.021
			c0.104,0.014,0.189,0.031,0.259,0.052l-0.188,1.617l-0.729-0.019c-0.26,0-0.475,0.051-0.645,0.152
			c-0.171,0.101-0.3,0.245-0.39,0.432v3.197l0.852,0.183v1.063h-3.478V59.643z"/>
		<path fill="#E4B645" d="M214.031,59.722c-0.288,0.283-0.707,0.54-1.258,0.769c-0.552,0.229-1.249,0.344-2.092,0.344
			c-1.195,0-2.168-0.4-2.918-1.201c-0.75-0.8-1.124-1.841-1.124-3.121v-0.305c0-1.325,0.369-2.402,1.109-3.233
			c0.739-0.831,1.705-1.246,2.896-1.246c0.693,0,1.326,0.11,1.899,0.331s1.051,0.52,1.432,0.896v1.781h-1.313l-0.25-1.186
			c-0.162-0.138-0.376-0.248-0.641-0.331c-0.266-0.083-0.571-0.125-0.915-0.125c-0.774,0-1.376,0.286-1.806,0.857
			s-0.645,1.319-0.645,2.243v0.316c0,0.899,0.211,1.618,0.632,2.155c0.422,0.536,1.03,0.805,1.824,0.805
			c0.356,0,0.646-0.03,0.866-0.091s0.395-0.132,0.52-0.213v-1.502l-1.265-0.097v-1.246h3.046V59.722z"/>
		<path fill="#E4B645" d="M215.381,59.643l0.852-0.183v-4.079l-0.942-0.183v-1.069h2.596l0.079,0.96
			c0.153-0.341,0.353-0.605,0.596-0.796s0.524-0.286,0.845-0.286c0.093,0,0.191,0.007,0.295,0.021
			c0.104,0.014,0.189,0.031,0.259,0.052l-0.188,1.617l-0.729-0.019c-0.26,0-0.475,0.051-0.645,0.152
			c-0.171,0.101-0.3,0.245-0.39,0.432v3.197l0.852,0.183v1.063h-3.478V59.643z"/>
		<path fill="#E4B645" d="M220.651,57.356c0-0.98,0.274-1.784,0.824-2.41c0.549-0.626,1.308-0.939,2.276-0.939
			c0.973,0,1.733,0.313,2.282,0.937c0.55,0.624,0.824,1.429,0.824,2.413v0.128c0,0.988-0.274,1.794-0.824,2.416
			c-0.549,0.622-1.306,0.934-2.271,0.934c-0.977,0-1.739-0.312-2.288-0.934c-0.55-0.622-0.824-1.428-0.824-2.416V57.356z
			 M222.427,57.484c0,0.6,0.105,1.081,0.316,1.443c0.21,0.363,0.551,0.544,1.021,0.544c0.458,0,0.794-0.182,1.007-0.547
			c0.212-0.364,0.318-0.845,0.318-1.44v-0.128c0-0.584-0.107-1.06-0.322-1.429c-0.215-0.368-0.553-0.553-1.015-0.553
			s-0.799,0.185-1.009,0.553c-0.211,0.369-0.316,0.845-0.316,1.429V57.484z"/>
		<path fill="#E4B645" d="M232.519,59.873c-0.21,0.309-0.471,0.545-0.78,0.711c-0.311,0.167-0.664,0.25-1.062,0.25
			c-0.692,0-1.235-0.222-1.629-0.666c-0.394-0.443-0.59-1.134-0.59-2.07v-2.717l-0.724-0.183v-1.069h0.724h1.775v3.981
			c0,0.479,0.08,0.821,0.24,1.03s0.398,0.313,0.714,0.313c0.28,0,0.522-0.046,0.727-0.137c0.205-0.092,0.372-0.223,0.502-0.393
			v-3.544l-0.778-0.183v-1.069h0.778h1.774v5.331l0.797,0.183v1.063h-2.353L232.519,59.873z"/>
		<path fill="#E4B645" d="M235.839,55.198v-1.069h2.578l0.085,0.766c0.194-0.284,0.428-0.503,0.699-0.656
			c0.271-0.154,0.587-0.231,0.948-0.231c0.814,0,1.446,0.318,1.896,0.954c0.45,0.637,0.675,1.474,0.675,2.511V57.6
			c0,0.973-0.225,1.755-0.675,2.347s-1.078,0.888-1.885,0.888c-0.345,0-0.65-0.064-0.918-0.191
			c-0.268-0.128-0.496-0.315-0.687-0.563v1.902l0.857,0.183v1.07h-3.483v-1.07l0.856-0.183v-6.602L235.839,55.198z M240.945,57.472
			c0-0.62-0.104-1.122-0.31-1.507c-0.207-0.386-0.523-0.578-0.948-0.578c-0.268,0-0.496,0.055-0.685,0.164s-0.337,0.266-0.446,0.469
			V58.9c0.109,0.187,0.258,0.328,0.446,0.426s0.421,0.146,0.696,0.146c0.43,0,0.745-0.168,0.945-0.504
			c0.201-0.337,0.301-0.793,0.301-1.368V57.472z"/>
		<path fill="#748EC4" d="M247.093,60.706v-1.063l0.941-0.183v-6.353l-0.941-0.183v-1.07h0.941h1.775h0.948v1.07l-0.948,0.183v6.237
			h2.499l0.085-1.113h1.355v2.475H247.093z"/>
		<path fill="#748EC4" d="M254.716,57.356c0-0.98,0.274-1.784,0.824-2.41c0.549-0.626,1.308-0.939,2.276-0.939
			c0.973,0,1.733,0.313,2.282,0.937c0.55,0.624,0.824,1.429,0.824,2.413v0.128c0,0.988-0.274,1.794-0.824,2.416
			c-0.549,0.622-1.306,0.934-2.271,0.934c-0.977,0-1.739-0.312-2.288-0.934c-0.55-0.622-0.824-1.428-0.824-2.416V57.356z
			 M256.491,57.484c0,0.6,0.105,1.081,0.316,1.443c0.21,0.363,0.551,0.544,1.021,0.544c0.458,0,0.794-0.182,1.007-0.547
			c0.212-0.364,0.318-0.845,0.318-1.44v-0.128c0-0.584-0.107-1.06-0.322-1.429c-0.215-0.368-0.553-0.553-1.015-0.553
			s-0.799,0.185-1.009,0.553c-0.211,0.369-0.316,0.845-0.316,1.429V57.484z"/>
		<path fill="#748EC4" d="M261.885,59.643l0.851-0.183v-4.079l-0.942-0.183v-1.069h2.596l0.079,0.941
			c0.219-0.336,0.488-0.598,0.809-0.784c0.32-0.186,0.679-0.279,1.076-0.279c0.665,0,1.184,0.209,1.557,0.626
			c0.372,0.418,0.559,1.072,0.559,1.964v2.863l0.852,0.183v1.063h-3.393v-1.063l0.76-0.183v-2.857c0-0.441-0.089-0.755-0.268-0.939
			c-0.178-0.184-0.447-0.276-0.809-0.276c-0.234,0-0.445,0.048-0.632,0.143c-0.187,0.096-0.343,0.23-0.468,0.404v3.526l0.717,0.183
			v1.063h-3.343V59.643z"/>
		<path fill="#748EC4" d="M274.39,59.903c-0.207,0.305-0.451,0.535-0.733,0.693c-0.281,0.158-0.603,0.237-0.963,0.237
			c-0.811,0-1.44-0.296-1.888-0.888c-0.448-0.592-0.672-1.374-0.672-2.347v-0.128c0-1.037,0.225-1.874,0.675-2.511
			c0.45-0.636,1.082-0.954,1.896-0.954c0.328,0,0.624,0.072,0.888,0.216s0.494,0.348,0.693,0.611v-2.359l-0.948-0.182v-1.07h0.948
			h1.774v8.237l0.852,0.183v1.063h-2.389L274.39,59.903z M271.909,57.6c0,0.575,0.096,1.028,0.288,1.358
			c0.193,0.331,0.508,0.496,0.945,0.496c0.26,0,0.484-0.053,0.675-0.158s0.347-0.258,0.469-0.456v-2.79
			c-0.122-0.211-0.276-0.374-0.465-0.489c-0.188-0.116-0.411-0.174-0.666-0.174c-0.434,0-0.75,0.192-0.948,0.578
			c-0.199,0.385-0.298,0.887-0.298,1.507V57.6z"/>
		<path fill="#748EC4" d="M277.764,57.356c0-0.98,0.274-1.784,0.824-2.41c0.549-0.626,1.308-0.939,2.276-0.939
			c0.973,0,1.733,0.313,2.282,0.937c0.55,0.624,0.824,1.429,0.824,2.413v0.128c0,0.988-0.274,1.794-0.824,2.416
			c-0.549,0.622-1.306,0.934-2.271,0.934c-0.977,0-1.739-0.312-2.288-0.934c-0.55-0.622-0.824-1.428-0.824-2.416V57.356z
			 M279.539,57.484c0,0.6,0.105,1.081,0.316,1.443c0.21,0.363,0.551,0.544,1.021,0.544c0.458,0,0.794-0.182,1.007-0.547
			c0.212-0.364,0.318-0.845,0.318-1.44v-0.128c0-0.584-0.107-1.06-0.321-1.429c-0.216-0.368-0.554-0.553-1.016-0.553
			s-0.799,0.185-1.009,0.553c-0.211,0.369-0.316,0.845-0.316,1.429V57.484z"/>
		<path fill="#748EC4" d="M284.932,59.643l0.851-0.183v-4.079l-0.942-0.183v-1.069h2.596l0.079,0.941
			c0.219-0.336,0.488-0.598,0.809-0.784c0.32-0.186,0.679-0.279,1.076-0.279c0.665,0,1.184,0.209,1.557,0.626
			c0.372,0.418,0.559,1.072,0.559,1.964v2.863l0.852,0.183v1.063h-3.393v-1.063l0.76-0.183v-2.857c0-0.441-0.089-0.755-0.268-0.939
			c-0.178-0.184-0.447-0.276-0.809-0.276c-0.234,0-0.445,0.048-0.632,0.143c-0.187,0.096-0.343,0.23-0.468,0.404v3.526l0.717,0.183
			v1.063h-3.343V59.643z"/>
	</g>
	<rect x="122.168" y="51.223" fill-rule="evenodd" clip-rule="evenodd" fill="none" width="171.019" height="14.194"/>
	<text transform="matrix(1 0 0 1 122.1685 60.7061)" display="none"><tspan x="0" y="0" display="inline" fill="#C33934" font-family="'RobotoSlab-Bold'" font-size="12.45">Joomla!</tspan><tspan x="48.68" y="0" display="inline" fill="#283372" font-family="'RobotoSlab-Bold'" font-size="12.45"> </tspan><tspan x="52.018" y="0" display="inline" fill="#87BE40" font-family="'RobotoSlab-Bold'" font-size="12.45">User</tspan><tspan x="80.847" y="0" display="inline" fill="#283372" font-family="'RobotoSlab-Bold'" font-size="12.45"> </tspan><tspan x="84.185" y="0" display="inline" fill="#E4B645" font-family="'RobotoSlab-Bold'" font-size="12.45">Group</tspan><tspan x="121.368" y="0" display="inline" fill="#283372" font-family="'RobotoSlab-Bold'" font-size="12.45"> </tspan><tspan x="124.706" y="0" display="inline" fill="#748EC4" font-family="'RobotoSlab-Bold'" font-size="12.45">London</tspan></text>
</g>
<g id="spacers" display="none">
	<rect display="inline" fill="#FFF200" width="7.413" height="68.099"/>
	<rect y="60.686" display="inline" fill="#FFF200" width="306.563" height="7.413"/>
	<rect display="inline" fill="#FFF200" width="306.563" height="7.413"/>
	<rect x="300.601" y="-0.049" display="inline" fill="#FFF200" width="7.413" height="68.098"/>
	<rect x="113.409" y="0.125" display="inline" fill="#FFF200" width="7.413" height="68.099"/>
	<rect x="120.822" y="-0.05" display="inline" fill="#FFF200" width="7.413" height="68.099"/>
</g>
</svg>
